<?xml version="1.0" encoding="UTF-8"?>
<svg version="1.1" xmlns="http://www.w3.org/2000/svg" width="729" height="263">
<path d="M0 0 C240.57 0 481.14 0 729 0 C729 86.79 729 173.58 729 263 C488.43 263 247.86 263 0 263 C0 176.21 0 89.42 0 0 Z " fill="#FDFDFD" transform="translate(0,0)"/>
<path d="M0 0 C6.37585541 4.37229713 11.15533835 9.75254545 14 17 C14 17.99 14 18.98 14 20 C15.8871875 19.87625 15.8871875 19.87625 17.8125 19.75 C27.56595533 19.82643774 34.93705844 23.79994725 41.83203125 30.51953125 C46.90151876 36.31975569 49.12405424 41.42293218 49.25 49.125 C49.39823034 52.75201108 49.51165728 54.4211104 51.875 57.22265625 C53.45875538 58.53290125 55.06878354 59.81201802 56.703125 61.05859375 C61.11559089 64.78817802 64.00958494 70.30245097 65 76 C64.96980774 77.89662297 64.9041366 79.79285148 64.8125 81.6875 C64.75731643 85.85636757 64.99358687 88.59621609 67 92.25 C69.19402714 96.49022976 69.38352142 100.49432726 69.375 105.1875 C69.37628906 105.86522461 69.37757813 106.54294922 69.37890625 107.24121094 C69.28625544 111.53052232 68.39778812 114.9770976 67 119 C66.89063736 121.12517135 66.89063736 121.12517135 67.25 123.0625 C67.33765625 123.69285156 67.4253125 124.32320312 67.515625 124.97265625 C67.96168907 127.0986864 67.96168907 127.0986864 69.0234375 129.36328125 C71.9111948 137.16022597 70.3656884 146.01675068 67.2578125 153.50390625 C63.68081356 160.60236066 58.45043098 166.35104073 52 171 C51.34 171 50.68 171 50 171 C50.061875 172.299375 50.12375 173.59875 50.1875 174.9375 C50.14619879 183.73465879 46.73179958 191.36909461 41 198 C32.94868201 204.95961386 24.48029061 207.49906146 14 207 C13.88785156 207.72316406 13.77570313 208.44632813 13.66015625 209.19140625 C11.9445005 216.49055703 7.37612345 222.60853246 1.19921875 226.75 C-5.45894285 230.53439025 -12.24154903 233.52798016 -20 232 C-25.81257548 229.90506881 -30.73915024 227.43474959 -34 222 C-35.65374393 218.43354637 -36.24651707 215.67318916 -36.22705078 211.75073242 C-36.22689972 210.73005173 -36.22674866 209.70937103 -36.22659302 208.65776062 C-36.21110916 207.02312614 -36.21110916 207.02312614 -36.1953125 205.35546875 C-36.1924826 204.2305452 -36.18965271 203.10562164 -36.18673706 201.9466095 C-36.17555836 198.36013064 -36.15045763 194.77390315 -36.125 191.1875 C-36.11496723 188.75325882 -36.1058419 186.31901372 -36.09765625 183.88476562 C-36.07562656 177.92309158 -36.04217174 171.96156375 -36 166 C-34.76660889 165.60167969 -33.53321777 165.20335937 -32.26245117 164.79296875 C-30.62670263 164.25808074 -28.99104668 163.7229095 -27.35546875 163.1875 C-26.54460815 162.92646484 -25.73374756 162.66542969 -24.89831543 162.39648438 C-18.70004224 160.35817886 -13.29623279 157.8601389 -8 154 C-7.3709375 153.56300781 -6.741875 153.12601563 -6.09375 152.67578125 C2.44547907 146.14027479 7.00530466 136.0675939 10 126 C10.22558594 125.25105469 10.45117188 124.50210938 10.68359375 123.73046875 C14.49953875 109.1246103 11.00739305 95.93127774 3.9140625 83.0078125 C-4.22660182 70.21534 -15.96566521 64.2772942 -30 60 C-32.00106629 59.33654078 -34.00122307 58.67032472 -36 58 C-36.07620013 51.27399978 -36.12866292 44.54811132 -36.16479492 37.82177734 C-36.17986116 35.53462565 -36.20031797 33.24750275 -36.22631836 30.96044922 C-36.26279606 27.66887293 -36.27974834 24.37767938 -36.29296875 21.0859375 C-36.30845261 20.06696381 -36.32393646 19.04799011 -36.33988953 17.99813843 C-36.34138578 11.65543933 -35.74473676 7.1102586 -31.38671875 2.171875 C-21.60706099 -6.01156276 -11.14399706 -5.70045959 0 0 Z " fill="#2D6CD8" transform="translate(157,14)"/>
<path d="M0 0 C4.4926853 2.60144832 7.20560885 6.51578672 9.19921875 11.2734375 C9.43972778 13.61468506 9.43972778 13.61468506 9.42626953 16.22558594 C9.42611847 17.20630066 9.42596741 18.18701538 9.42581177 19.19744873 C9.4154892 20.24861877 9.40516663 21.29978882 9.39453125 22.3828125 C9.39170135 23.46475891 9.38887146 24.54670532 9.38595581 25.66143799 C9.37476484 29.11555054 9.34966195 32.56940338 9.32421875 36.0234375 C9.31418756 38.36588167 9.30506195 40.70832991 9.296875 43.05078125 C9.27482905 48.79175521 9.24136209 54.5325778 9.19921875 60.2734375 C8.26037842 60.460271 7.32153809 60.64710449 6.35424805 60.83959961 C4.48893433 61.22257202 4.48893433 61.22257202 2.5859375 61.61328125 C1.35834717 61.86198975 0.13075684 62.11069824 -1.1340332 62.36694336 C-14.18274015 65.59284714 -24.80728326 73.86685168 -31.80078125 85.2734375 C-36.82862689 94.12244582 -38.29635397 102.71231372 -38.17578125 112.7734375 C-38.18738281 113.74152344 -38.19898438 114.70960937 -38.2109375 115.70703125 C-38.16056845 128.21534431 -33.8404355 140.49513137 -24.86328125 149.5234375 C-24.18265625 150.1009375 -23.50203125 150.6784375 -22.80078125 151.2734375 C-23.23416871 152.62892594 -23.6727612 153.98275026 -24.11328125 155.3359375 C-24.35691406 156.09003906 -24.60054688 156.84414062 -24.8515625 157.62109375 C-26.02791745 160.90811026 -27.40289967 164.07436397 -28.80078125 167.2734375 C-27.72699219 166.99628906 -26.65320313 166.71914062 -25.546875 166.43359375 C-24.11072596 166.06751654 -22.67452526 165.70164192 -21.23828125 165.3359375 C-20.53380859 165.15353516 -19.82933594 164.97113281 -19.10351562 164.78320312 C-11.91739854 162.96183704 -6.24083524 161.6965629 1.01171875 164.0859375 C2.13191406 164.44300781 3.25210938 164.80007812 4.40625 165.16796875 C7.19921875 166.2734375 7.19921875 166.2734375 9.19921875 168.2734375 C9.46664429 170.36503601 9.46664429 170.36503601 9.48974609 172.97924805 C9.5025058 173.95754074 9.5152655 174.93583344 9.52841187 175.94377136 C9.53063751 177.00517838 9.53286316 178.06658539 9.53515625 179.16015625 C9.54514145 180.7957122 9.54514145 180.7957122 9.55532837 182.46430969 C9.56547076 184.77688914 9.5701449 187.08949794 9.56982422 189.40209961 C9.57417977 192.92937094 9.6104353 196.45537359 9.6484375 199.98242188 C9.65430892 202.22916239 9.65827614 204.47590885 9.66015625 206.72265625 C9.67452728 207.77394211 9.68889832 208.82522797 9.70370483 209.90837097 C9.65810659 217.27472584 8.43427643 221.5557605 3.5234375 227.19921875 C-2.09168982 231.95666553 -7.88415691 233.91303748 -15.2734375 233.7109375 C-23.32400758 232.31733032 -30.38640774 227.79360217 -35.3984375 221.43359375 C-37.89988204 217.58039366 -40.80078125 212.98146995 -40.80078125 208.2734375 C-42.07953125 208.3353125 -43.35828125 208.3971875 -44.67578125 208.4609375 C-53.27788305 208.40700583 -60.14904517 205.88814003 -66.7578125 200.3671875 C-71.59238471 195.41244428 -75.22089267 189.02387052 -76.80078125 182.2734375 C-76.77113281 181.62117187 -76.74148437 180.96890625 -76.7109375 180.296875 C-76.63930707 175.79211702 -77.25860927 173.86222156 -80.390625 170.4609375 C-82.47230592 168.54373587 -84.63492359 166.74596718 -86.8203125 164.94921875 C-92.31635577 160.29985386 -95.43764289 154.25705213 -96.80078125 147.2734375 C-97.44235389 139.13240091 -97.38774948 132.6033291 -93.80078125 125.2734375 C-93.99967404 122.0248553 -94.70751637 119.52699031 -95.828125 116.48046875 C-98.30978306 108.2979737 -97.3747109 100.74667905 -93.80859375 93.140625 C-92.47256548 89.33967636 -92.16619304 85.6435206 -91.80078125 81.6484375 C-90.68826315 70.42244971 -87.3268811 64.67379689 -78.80078125 57.2734375 C-77.81078125 56.7784375 -77.81078125 56.7784375 -76.80078125 56.2734375 C-76.48233644 53.75798921 -76.48233644 53.75798921 -76.42578125 50.7734375 C-75.85749952 42.65375103 -73.3276819 35.93660906 -67.74609375 29.90625 C-61.75964256 24.88147772 -55.15521166 22.22044298 -47.42578125 21.5859375 C-43.04162632 21.04267281 -43.04162632 21.04267281 -40.03125 17.99609375 C-39.07350302 16.07268453 -38.15619607 14.12868313 -37.27734375 12.16796875 C-33.81723918 5.38506535 -27.12527969 0.62532578 -20.11328125 -2.1015625 C-12.97782234 -4.03006491 -6.68802225 -2.9607885 0 0 Z " fill="#325DD4" transform="translate(100.80078125,12.7265625)"/>
<path d="M0 0 C5.61 0 11.22 0 17 0 C18.09054687 1.92585938 18.09054687 1.92585938 19.203125 3.890625 C24.5437674 13.29499447 29.9376147 22.6622138 35.5 31.9375 C35.99145508 32.75831055 36.48291016 33.57912109 36.98925781 34.42480469 C39.55894445 38.69108663 42.19776856 42.88257031 45 47 C47.75513436 44.53130845 49.39971224 41.82225209 51.22265625 38.6171875 C52.14763916 37.00058228 52.14763916 37.00058228 53.09130859 35.35131836 C53.74180176 34.2041333 54.39229492 33.05694824 55.0625 31.875 C56.07182886 30.10789348 57.08293447 28.34181108 58.09405518 26.57572937 C58.76807754 25.39808162 59.44154002 24.22011325 60.11444092 23.04182434 C63.00142493 17.98738306 65.92478618 12.95524761 68.875 7.9375 C69.28500244 7.2367334 69.69500488 6.5359668 70.11743164 5.81396484 C72.87819602 1.12180398 72.87819602 1.12180398 74 0 C79.28 0 84.56 0 90 0 C90 26.07 90 52.14 90 79 C84.39 79 78.78 79 73 79 C72.67 63.82 72.34 48.64 72 33 C67.3772941 41.34438998 67.3772941 41.34438998 62.75756836 49.69042969 C61.83277497 51.35740032 60.90699013 53.0238813 59.96653748 54.68206787 C58.30510018 57.61453472 56.73837313 60.53601602 55.25830078 63.56835938 C51.24217065 71.45457853 51.24217065 71.45457853 47.73144531 72.99609375 C45.07679418 73.22817047 43.45561652 73.03283942 41 72 C38.70156165 69.92379272 37.52596911 67.51549995 36.1875 64.75 C35.36296539 63.2032051 34.53603149 61.65768741 33.70703125 60.11328125 C33.27729004 59.28908691 32.84754883 58.46489258 32.40478516 57.61572266 C29.90127754 52.95416884 27.12112442 48.45874559 24.375 43.9375 C22.60125 40.988125 20.8275 38.03875 19 35 C18.67 49.52 18.34 64.04 18 79 C12.06 79 6.12 79 0 79 C0 52.93 0 26.86 0 0 Z " fill="#182A7C" transform="translate(265,90)"/>
<path d="M0 0 C5.88783396 4.84357662 11.32295919 11.03059241 13.6328125 18.390625 C14.76385836 30.63485399 13.56829543 39.98774646 5.5078125 49.703125 C1.07564206 54.33907339 -3.38329615 57.15155454 -9.3671875 59.390625 C-10.01171875 59.63425781 -10.65625 59.87789063 -11.3203125 60.12890625 C-18.16196453 62.24176938 -26.41485664 62.31387289 -33.34375 60.6953125 C-37.36973198 60.28959339 -39.53885557 61.51010152 -43.1171875 63.328125 C-49.22823534 66.390625 -49.22823534 66.390625 -51.3671875 66.390625 C-51.24537109 64.905625 -51.24537109 64.905625 -51.12109375 63.390625 C-50.5453494 55.84868119 -50.5453494 55.84868119 -52.8203125 48.82421875 C-54.59634226 46.91759856 -56.46104974 45.16515859 -58.3671875 43.390625 C-62.76314931 35.91748993 -63.34200284 27.91548072 -62.3671875 19.390625 C-58.94246805 8.56746584 -52.01164083 1.63593389 -42.1171875 -3.546875 C-29.06540398 -9.83817588 -11.81501478 -8.03265031 0 0 Z " fill="#2861D2" transform="translate(139.3671875,96.609375)"/>
<path d="M0 0 C6.27091249 4.23965646 10.97977516 10.28020157 13.13671875 17.58984375 C15.19284014 28.40589898 13.4907095 38.18011009 7.57421875 47.52734375 C2.86944268 53.58674575 -4.48697739 57.58358093 -11.86328125 59.33984375 C-22.18771724 60.4870033 -31.76122375 60.15823939 -40.48828125 53.96484375 C-47.28621614 48.38916382 -52.29497097 42.44490217 -53.5559082 33.44873047 C-54.17394559 23.96150707 -54.46985872 14.44607654 -48.23828125 6.71484375 C-35.49858234 -7.60477845 -16.40019296 -9.41651568 0 0 Z " fill="#17297C" transform="translate(420.23828125,110.28515625)"/>
<path d="M0 0 C0.74886475 0.00523682 1.49772949 0.01047363 2.26928711 0.01586914 C3.07817383 0.0190918 3.88706055 0.02231445 4.72045898 0.02563477 C5.5705957 0.03401367 6.42073242 0.04239258 7.29663086 0.05102539 C8.15063477 0.05553711 9.00463867 0.06004883 9.88452148 0.06469727 C12.00108749 0.07652166 14.11761771 0.0944577 16.23413086 0.11352539 C22.11279106 11.39410222 27.14774711 22.9693068 32.10913086 34.67602539 C32.86784028 36.45809898 33.62695343 38.24000075 34.38647461 40.02172852 C35.52197421 42.68584606 36.65656089 45.35032801 37.78778076 48.01626587 C39.77793781 52.70578255 41.78258994 57.38841809 43.80932617 62.06225586 C44.4359465 63.51099342 44.4359465 63.51099342 45.07522583 64.98899841 C45.87992132 66.84776528 46.68749011 68.70529151 47.4982605 70.56141663 C48.03678146 71.80718727 48.03678146 71.80718727 48.58618164 73.078125 C48.90515411 73.81099228 49.22412659 74.54385956 49.55276489 75.29893494 C50.23413086 77.11352539 50.23413086 77.11352539 50.23413086 79.11352539 C43.96413086 79.11352539 37.69413086 79.11352539 31.23413086 79.11352539 C30.24413086 76.86540039 29.25413086 74.61727539 28.23413086 72.30102539 C27.92088867 71.59743896 27.60764648 70.89385254 27.28491211 70.16894531 C26.04223178 67.30757523 25.23413086 65.26457506 25.23413086 62.11352539 C13.35413086 62.44352539 1.47413086 62.77352539 -10.76586914 63.11352539 C-12.74586914 68.39352539 -14.72586914 73.67352539 -16.76586914 79.11352539 C-23.03586914 79.11352539 -29.30586914 79.11352539 -35.76586914 79.11352539 C-34.64086066 72.36347452 -34.64086066 72.36347452 -33.11450195 68.9453125 C-32.77571014 68.17751968 -32.43691833 67.40972687 -32.08786011 66.6186676 C-31.53402145 65.39215736 -31.53402145 65.39215736 -30.96899414 64.14086914 C-30.58341339 63.27231796 -30.19783264 62.40376678 -29.80056763 61.50889587 C-28.54566555 58.68658186 -27.28097435 55.86877869 -26.01586914 53.05102539 C-25.15153822 51.11328742 -24.28777151 49.17529769 -23.42456055 47.23706055 C-21.69565597 43.35830283 -19.96263817 39.4814262 -18.22583008 35.60620117 C-16.34679133 31.41334172 -14.47482865 27.21741482 -12.60852051 23.01887512 C-11.39888767 20.29768197 -10.18699814 17.57749949 -8.97424316 14.85769653 C-8.42016473 13.6149563 -7.86653265 12.37201696 -7.31335449 11.12887573 C-6.55773235 9.43258642 -5.79862854 7.73784928 -5.03930664 6.04321289 C-4.62084473 5.10719238 -4.20238281 4.17117187 -3.77124023 3.20678711 C-2.30213836 0.14800143 -2.30213836 0.14800143 0 0 Z " fill="#16A3ED" transform="translate(632.765869140625,89.886474609375)"/>
<path d="M0 0 C5.94 0 11.88 0 18 0 C18.33 15.18 18.66 30.36 19 46 C22.526875 42.04 26.05375 38.08 29.6875 34 C42.30774151 20.62908298 42.30774151 20.62908298 52.19848633 20.3125 C56.24593452 20.58338804 60.03868786 21.10870477 64 22 C60.7285853 25.96757175 57.3790073 29.67265066 53.66015625 33.2265625 C52.90798828 33.9484375 52.15582031 34.6703125 51.38085938 35.4140625 C49.81703532 36.9054263 48.24385173 38.38702899 46.66210938 39.859375 C45.91896484 40.57867187 45.17582031 41.29796875 44.41015625 42.0390625 C43.73090088 42.68053223 43.05164551 43.32200195 42.35180664 43.98291016 C40.74342902 45.94504104 40.74342902 45.94504104 41.14086914 48.51757812 C41.97365436 50.92387541 42.84939782 52.6260999 44.3359375 54.6796875 C44.81836914 55.35443115 45.30080078 56.0291748 45.79785156 56.72436523 C46.31831055 57.43407471 46.83876953 58.14378418 47.375 58.875 C47.90577148 59.61371338 48.43654297 60.35242676 48.98339844 61.11352539 C51.70580788 64.8912916 54.4685525 68.63865013 57.2421875 72.37890625 C58.00136475 73.40491943 58.00136475 73.40491943 58.77587891 74.45166016 C59.74417923 75.75609123 60.71766768 77.05669011 61.69677734 78.35302734 C65 82.78137582 65 82.78137582 65 85 C47.35887921 87.21548715 47.35887921 87.21548715 42.13671875 83.77099609 C39.04151121 80.55282003 36.99397902 76.7445913 34.97460938 72.79150391 C33.56513142 70.20063485 31.75605351 68.01244822 29.875 65.75 C27 62.22580645 27 62.22580645 27 60 C23.52106062 61.82267895 21.19793178 63.72401289 19 67 C17.65606985 72.91081665 18 78.97324721 18 85 C12.06 85 6.12 85 0 85 C0 56.95 0 28.9 0 0 Z " fill="#182B7D" transform="translate(509,84)"/>
<path d="M0 0 C7.36448486 2.67799449 11.5452191 7.12883561 14.8125 14.125 C15.12380859 14.75792969 15.43511719 15.39085937 15.75585938 16.04296875 C18 20.68907967 18 20.68907967 18 23 C18.75023437 22.95359375 19.50046875 22.9071875 20.2734375 22.859375 C29.43999361 22.53612113 36.54483454 24.05394786 43.875 29.75 C48.61602032 34.28927477 50.82721454 38.20993966 51.23828125 44.84765625 C51.28800207 48.57231742 51.17439345 52.27960646 51 56 C51.7734375 56.29648438 52.546875 56.59296875 53.34375 56.8984375 C58.56661302 59.06438952 62.17220246 62.61736496 65.08203125 67.3984375 C66.68999945 71.9554878 66.03230827 76.62010087 65.84375 81.390625 C66.03918753 85.90523199 67.4497235 88.09562792 69.87109375 91.765625 C72.14758508 96.27134487 71.72478268 101.11725351 71 106 C70.09117475 108.70394289 69.05758107 111.1985508 67.77734375 113.74609375 C66.79402218 116.59723218 67.1213714 118.13988088 68 121 C68.64652903 122.23074201 69.33461457 123.44055562 70.0625 124.625 C73.06916093 130.48413413 72.93841327 136.38341851 71.3046875 142.6796875 C67.86722084 152.1832718 61.35613996 158.5016599 53 164 C52.34 164 51.68 164 51 164 C51.03480469 164.845625 51.06960937 165.69125 51.10546875 166.5625 C51.31884884 175.50414198 51.0362746 181.93203028 44.9375 188.75 C37.19130546 195.8331591 28.13198571 196.68238289 18 197 C17.82984375 197.58007812 17.6596875 198.16015625 17.484375 198.7578125 C14.61965267 207.99197064 10.04928202 214.40312961 1.6875 219.375 C-4.03362581 220.70549437 -9.10927887 220.92817219 -14.4375 218.3125 C-17.54445338 215.50866402 -19.72141927 213.23197205 -20.25814819 208.93173218 C-20.34710494 206.39038834 -20.33705925 203.86674241 -20.29296875 201.32421875 C-20.28872391 200.3990596 -20.28447906 199.47390045 -20.28010559 198.52070618 C-20.26335993 195.5760037 -20.22571522 192.6319944 -20.1875 189.6875 C-20.17244785 187.68685887 -20.15876037 185.68620697 -20.14648438 183.68554688 C-20.11346983 178.79009893 -20.06171575 173.89516685 -20 169 C-19.13117188 168.74605469 -18.26234375 168.49210938 -17.3671875 168.23046875 C-16.21476563 167.88628906 -15.06234375 167.54210937 -13.875 167.1875 C-12.73804688 166.85105469 -11.60109375 166.51460937 -10.4296875 166.16796875 C-5.2399891 164.4006341 -0.65201309 161.8733022 4 159 C3.9375 161.1875 3.9375 161.1875 3 164 C0.43314355 166.38627358 -2.38918448 169 -6 169 C-4.72954304 170.75027325 -3.45861894 172.50020744 -2.1875 174.25 C-1.47980469 175.22453125 -0.77210938 176.1990625 -0.04296875 177.203125 C1.19725557 178.90102292 2.45987162 180.58325181 3.76171875 182.234375 C5 184 5 184 5 186 C1.83331129 185.7035748 0.93933642 184.93550613 -1.2890625 182.56640625 C-2.05992187 181.57511719 -2.83078125 180.58382812 -3.625 179.5625 C-6.66283872 175.64826276 -6.66283872 175.64826276 -10 172 C-13.08347826 171.83318891 -13.08347826 171.83318891 -16 172 C-15.93120126 177.49971814 -15.84327352 182.99867027 -15.73754883 188.49780273 C-15.70427998 190.36881014 -15.67625415 192.23991838 -15.65356445 194.11108398 C-15.62005412 196.79975383 -15.56774135 199.48749798 -15.51171875 202.17578125 C-15.50532883 203.01337479 -15.4989389 203.85096832 -15.49235535 204.71394348 C-15.52609716 209.01510228 -15.52609716 209.01510228 -13.59797668 212.68254089 C-10.58908155 215.1632381 -8.03599466 215.321918 -4.16796875 215.30078125 C-0.53941184 214.79735984 1.93997974 212.95841296 5 211 C5.66 211 6.32 211 7 211 C8.24064336 208.53732293 9.45370304 206.06370245 10.65625 203.58203125 C11.2706944 202.32545289 11.88528117 201.06894413 12.5 199.8125 C12.80808594 199.17119141 13.11617187 198.52988281 13.43359375 197.86914062 C15.77399554 193.11300223 15.77399554 193.11300223 18 192 C21.2918799 191.62726472 24.58088842 191.28278473 27.8828125 191.01367188 C34.06329833 190.36460598 38.02711058 188.19209935 42.25 183.5 C45.2167335 179.62273491 45.2167335 179.62273491 45.76171875 175.01171875 C44.79938044 172.4701586 43.87097761 172.10907441 41.5 170.875 C38.9363558 169.21124723 38.12849135 168.49693643 37.3515625 165.4921875 C37.20361977 163.70157033 37.10751467 161.90570818 37.0703125 160.109375 C37.24087792 158.01315887 37.24087792 158.01315887 36 157 C35.75 154.0625 35.75 154.0625 36 151 C39 149 39 149 41.0625 149.25 C43 150 43 150 45 152 C44.75 155.0625 44.75 155.0625 44 158 C43.34 158.33 42.68 158.66 42 159 C41.49874717 162.33142278 41.49874717 162.33142278 42 166 C44.86615486 168.49540371 44.86615486 168.49540371 48 170 C47.80664062 168.19402344 47.80664062 168.19402344 47.609375 166.3515625 C47.61159561 163.83005515 47.66312783 162.465408 49.15429688 160.40527344 C50.7891524 158.94668544 52.46798625 157.64950234 54.25 156.375 C60.7214966 151.53915639 64.71377834 147.00177579 67 139 C65.865625 138.87625 64.73125 138.7525 63.5625 138.625 C62.386875 138.41875 61.21125 138.2125 60 138 C59.67 137.34 59.34 136.68 59 136 C56.33243158 135.51280036 53.75370132 135.1500589 51.0625 134.875 C49.9014978 134.75415039 49.9014978 134.75415039 48.71704102 134.63085938 C47.17561716 134.47737799 45.6335264 134.33043667 44.09082031 134.19042969 C42.36864706 134.03357598 40.64872982 133.8521511 38.9296875 133.6640625 C33.60693465 133.31366184 29.60629741 134.22100756 25.4296875 137.66796875 C22.34580784 142.69823148 23.48022778 149.32581995 24 155 C23.01 155 22.02 155 21 155 C20.60223517 152.66313161 20.2805117 150.35198273 20 148 C19.88527344 147.26652344 19.77054688 146.53304687 19.65234375 145.77734375 C19.30715342 142.11832625 19.26221602 139.92760218 21.609375 136.9765625 C23.66607622 135.14408811 25.71559512 133.53888357 28 132 C28.72058594 131.42378906 29.44117188 130.84757813 30.18359375 130.25390625 C34.37711462 128.38688794 37.91907028 129.1675628 42.375 129.8125 C50.65627424 130.9580115 50.65627424 130.9580115 59 131 C59.66 130.34 60.32 129.68 61 129 C63.625 128.875 63.625 128.875 66 129 C65.525625 127.989375 65.05125 126.97875 64.5625 125.9375 C62.69757627 121.45451025 61.12489247 117.45766181 62.8359375 112.65234375 C63.19945312 111.81832031 63.56296875 110.98429687 63.9375 110.125 C66.37783621 104.513077 67.35866956 99.63158406 65.1640625 93.765625 C63.65749498 90.66186935 61.91488554 87.87232832 60 85 C58.5459375 84.5359375 58.5459375 84.5359375 57.0625 84.0625 C53.65693867 82.88097872 52.63018324 82.16980075 51 79 C50.5 76.5625 50.5 76.5625 51 74 C53.3125 71.1875 53.3125 71.1875 56 69 C56.99 69 57.98 69 59 69 C56.65922023 64.80610291 55.24787765 63.01222532 50.8125 61.125 C48.69140625 59.93359375 48.69140625 59.93359375 47 58 C46.43501951 54.60642435 46.27075765 51.44817185 46.21435547 48.02270508 C46.09420771 41.40621376 45.22308681 37.14190075 40.44921875 32.48828125 C34.46182199 28.01375991 27.23669565 27.68098119 20 27 C20.24631557 31.05085679 20.24631557 31.05085679 21 35 C22.92064793 36.5899433 22.92064793 36.5899433 25 37 C24.125 41.875 24.125 41.875 23 43 C21.00041636 43.04080783 18.99954746 43.04254356 17 43 C16.42991025 39.50820025 15.98389622 36.30340978 16.171875 32.76171875 C15.9627727 28.1852297 14.65274831 24.98338309 12.75 20.875 C12.44964844 20.18535156 12.14929688 19.49570312 11.83984375 18.78515625 C9.54300296 13.67346376 7.08202092 9.43758587 2.375 6.1875 C-2.04107983 4.63369413 -6.37700476 4.03115446 -11 5 C-13.26167386 6.50140682 -13.26167386 6.50140682 -15 9 C-15.41792995 11.73710477 -15.60472211 14.08986105 -15.609375 16.828125 C-15.62591125 17.57713074 -15.64244751 18.32613647 -15.65948486 19.09783936 C-15.7079351 21.48197654 -15.72932772 23.86547611 -15.75 26.25 C-15.7781624 27.86982369 -15.80809022 29.48961772 -15.83984375 31.109375 C-15.91369244 35.07286414 -15.96328457 39.03599998 -16 43 C-15.01 43 -14.02 43 -13 43 C-13 40.03 -13 37.06 -13 34 C-12.01 34 -11.02 34 -10 34 C-10 37.3 -10 40.6 -10 44 C-8.948125 44.020625 -7.89625 44.04125 -6.8125 44.0625 C0.48287457 44.96300241 8.29768835 49.08336708 13.265625 54.4453125 C14.87580173 56.81705931 15.97425261 58.95988848 17 61.625 C18.94277058 66.25249269 18.94277058 66.25249269 23 69 C25.69809776 68.74303831 27.58350693 68.20824654 30 67 C30.70491267 64.67793475 31.37212429 62.34406932 32 60 C33 59 33 59 35.375 58.75 C38 59 38 59 39.875 60.1875 C41 62 41 62 40.8125 64.5625 C40 67 40 67 38 69 C35.66989091 69.67784992 33.33640176 70.34416793 31 71 C30.01 71.66 29.02 72.32 28 73 C22.5376279 73 19.39418476 71.42784191 15.5078125 67.8203125 C12.99750278 64.78973133 12.11030422 61.76269764 11 58 C10.67 57.01 10.34 56.02 10 55 C7.67480368 53.87368603 7.67480368 53.87368603 5 53 C4.29101562 52.67 3.58203125 52.34 2.8515625 52 C-2.30752717 49.68293517 -7.25040396 48.53403927 -12.8515625 47.875 C-13.54161377 47.78863281 -14.23166504 47.70226562 -14.94262695 47.61328125 C-16.62772164 47.40319152 -18.31377293 47.20079854 -20 47 C-20.14892693 41.5740954 -20.25748635 36.14939404 -20.32958984 30.72192383 C-20.35966233 28.87796288 -20.4005326 27.03414379 -20.45263672 25.19067383 C-20.52587858 22.53170709 -20.55955005 19.87463925 -20.5859375 17.21484375 C-20.61690521 16.39789536 -20.64787292 15.58094696 -20.67977905 14.73924255 C-20.68302278 9.15429654 -19.33732337 6.34852762 -15.48721313 2.3049469 C-11.25592652 -1.40777202 -5.29611911 -0.38870599 0 0 Z " fill="#EDF2FA" transform="translate(148,18)"/>
<path d="M0 0 C5.781983 4.93169138 5.781983 4.93169138 6.47424316 8.72744751 C6.58715999 11.03294223 6.57477457 13.30577006 6.515625 15.61328125 C6.50996521 16.44965622 6.50430542 17.28603119 6.49847412 18.14775085 C6.47616268 20.80742711 6.42597788 23.46573405 6.375 26.125 C6.35492815 27.93292319 6.33667858 29.74086759 6.3203125 31.54882812 C6.27631527 35.97057611 6.20732546 40.39130625 6.125 44.8125 C5.26197266 44.92859619 4.39894531 45.04469238 3.50976562 45.16430664 C-5.14529265 46.39271686 -5.14529265 46.39271686 -13.375 49.25 C-14.3134375 49.66121094 -15.251875 50.07242188 -16.21875 50.49609375 C-22.30064369 53.35492089 -22.30064369 53.35492089 -26 58.6875 C-26.32484375 59.39132813 -26.6496875 60.09515625 -26.984375 60.8203125 C-27.27828125 61.47773437 -27.5721875 62.13515625 -27.875 62.8125 C-30.09879332 67.26008664 -32.40366961 69.53299823 -36.875 71.8125 C-40.63248654 71.66798129 -42.20051748 71.48698252 -44.875 68.8125 C-46.03 68.6475 -47.185 68.4825 -48.375 68.3125 C-51.875 67.8125 -51.875 67.8125 -53.875 65.8125 C-54.125 63.3125 -54.125 63.3125 -53.875 60.8125 C-51.875 58.8125 -51.875 58.8125 -49.375 58.5625 C-46.875 58.8125 -46.875 58.8125 -44.875 60.8125 C-44.75 63.4375 -44.75 63.4375 -44.875 65.8125 C-43.46066794 66.0361337 -42.04332382 66.24076476 -40.625 66.4375 C-39.83609375 66.55351563 -39.0471875 66.66953125 -38.234375 66.7890625 C-35.44402155 66.81678124 -34.12031527 66.47186677 -31.875 64.8125 C-31.03398215 62.6400654 -31.03398215 62.6400654 -30.625 60.125 C-28.97948076 54.08272301 -26.12825285 51.10833061 -20.875 47.8125 C-15.07800488 44.85392995 -10.44160773 42.8125 -3.875 42.8125 C-3.875 39.1825 -3.875 35.5525 -3.875 31.8125 C-5.195 31.1525 -6.515 30.4925 -7.875 29.8125 C-8 27.4375 -8 27.4375 -7.875 24.8125 C-5.875 22.8125 -5.875 22.8125 -2.8125 22.625 C0.125 22.8125 0.125 22.8125 1.125 23.8125 C1.16592937 26.14547433 1.16741723 28.47955225 1.125 30.8125 C0.465 30.8125 -0.195 30.8125 -0.875 30.8125 C-0.875 34.4425 -0.875 38.0725 -0.875 41.8125 C0.115 41.8125 1.105 41.8125 2.125 41.8125 C2.08082332 37.04294243 2.01096836 32.27470577 1.91748047 27.50585938 C1.88928653 25.88422163 1.86806406 24.26244687 1.85400391 22.640625 C1.83255128 20.30657895 1.78589425 17.97417739 1.734375 15.640625 C1.73314636 14.91756165 1.73191772 14.19449829 1.73065186 13.44952393 C1.63044072 9.9916769 1.38164584 8.13805636 -0.78808594 5.38574219 C-4.61305324 2.50225023 -7.06699818 2.27827758 -11.875 2.8125 C-20.67929623 7.09607174 -24.79941691 13.66185657 -28.1875 22.5625 C-28.45530273 23.26262207 -28.72310547 23.96274414 -28.99902344 24.68408203 C-30.79017332 29.71575341 -31.294398 33.69549378 -30.109375 38.9921875 C-30.03203125 39.59289063 -29.9546875 40.19359375 -29.875 40.8125 C-31.875 42.8125 -31.875 42.8125 -34.375 43.0625 C-36.875 42.8125 -36.875 42.8125 -38.875 40.8125 C-39.1875 38.375 -39.1875 38.375 -38.875 35.8125 C-37.875 34.8125 -36.875 33.8125 -35.875 32.8125 C-35.13113932 30.50261685 -34.45309297 28.16934056 -33.875 25.8125 C-42.5474229 25.99386246 -49.92909679 27.41235163 -56.57421875 33.32421875 C-60.27234971 38.03960063 -60.07420709 42.65192441 -60.125 48.375 C-60.19883833 55.95032599 -60.19883833 55.95032599 -62.8203125 59.29296875 C-65.25 61.0625 -65.25 61.0625 -67.70703125 62.51953125 C-70.40750711 64.13008532 -71.58519589 65.97493097 -72.875 68.8125 C-71.699375 68.998125 -71.699375 68.998125 -70.5 69.1875 C-67.875 69.8125 -67.875 69.8125 -65.875 71.8125 C-65.53561593 74.81847324 -65.30677243 76.91396543 -65.875 79.8125 C-68.09947319 82.22234595 -69.61182228 83.5879899 -72.875 84.16796875 C-76.34623429 85.28662824 -77.29349736 88.04393468 -78.890625 91.14453125 C-81.14062237 97.24273841 -80.6119787 103.39006918 -78.4375 109.4375 C-77.21428124 112.58808669 -77.21428124 112.58808669 -75.875 113.8125 C-76.21970107 119.55751792 -77.87073381 123.06382118 -80.875 127.8125 C-79.9675 127.956875 -79.06 128.10125 -78.125 128.25 C-74.875 128.8125 -74.875 128.8125 -72.98876953 129.38208008 C-70.41317911 129.90653907 -68.40395846 129.63791021 -65.8046875 129.26171875 C-47.507144 126.91762482 -47.507144 126.91762482 -41.6875 130.4375 C-39.64453125 132.0390625 -39.64453125 132.0390625 -37.875 133.8125 C-37.1428125 134.42996094 -36.410625 135.04742187 -35.65625 135.68359375 C-33.39564521 138.38541307 -33.42270889 139.77450379 -33.5625 143.25 C-33.58699219 144.17683594 -33.61148438 145.10367188 -33.63671875 146.05859375 C-33.86597817 148.70823135 -34.29602023 151.21885893 -34.875 153.8125 C-35.865 153.8125 -36.855 153.8125 -37.875 153.8125 C-37.78798828 152.38357422 -37.78798828 152.38357422 -37.69921875 150.92578125 C-37.19021659 143.30272552 -37.19021659 143.30272552 -40.125 136.5625 C-48.34700893 131.3303125 -55.92894172 132.58896044 -65.3125 133.625 C-66.01084961 133.69493164 -66.70919922 133.76486328 -67.42871094 133.83691406 C-71.29235521 134.30928362 -73.37243808 134.80288305 -75.875 137.8125 C-78.5625 138 -78.5625 138 -80.875 137.8125 C-77.60024482 146.3076002 -73.99605621 152.10577234 -66 156.6875 C-62.04043925 159.12823427 -62.04043925 159.12823427 -61.30078125 162.1875 C-61.3114489 164.46326438 -61.47221234 166.57479077 -61.875 168.8125 C-58.77653551 167.36048166 -58.77653551 167.36048166 -55.875 164.8125 C-55.03604266 162.04763429 -54.97252026 159.73810787 -54.875 156.8125 C-53.885 156.8125 -52.895 156.8125 -51.875 156.8125 C-51.38352999 160.26644199 -51.18006 163.37867883 -51.875 166.8125 C-54.20509294 169.4287447 -56.8169644 171.13331081 -59.875 172.8125 C-59.30611163 176.7947186 -57.98498585 179.41817493 -55.875 182.8125 C-55.875 183.4725 -55.875 184.1325 -55.875 184.8125 C-55.2975 185.10125 -54.72 185.39 -54.125 185.6875 C-51.875 186.8125 -51.875 186.8125 -50.25 187.8125 C-46.8193411 189.25698796 -43.29286954 189.54219957 -39.625 189.9375 C-38.50738281 190.06705078 -38.50738281 190.06705078 -37.3671875 190.19921875 C-35.53722154 190.41036867 -33.70620121 190.61234545 -31.875 190.8125 C-31.40449219 190.090625 -30.93398437 189.36875 -30.44921875 188.625 C-29.51529297 187.2328125 -29.51529297 187.2328125 -28.5625 185.8125 C-27.64017578 184.4203125 -27.64017578 184.4203125 -26.69921875 183 C-26.09722656 182.278125 -25.49523437 181.55625 -24.875 180.8125 C-23.885 180.8125 -22.895 180.8125 -21.875 180.8125 C-22.82817768 183.96531849 -23.7111103 186.56970045 -25.5625 189.3125 C-27.34822143 192.71387415 -26.93589845 194.13471872 -25.875 197.8125 C-23.59554 204.15680984 -21.03303337 209.36608951 -14.99609375 212.91796875 C-12.67054262 213.89872604 -10.95382771 214.14388947 -8.4375 214.1875 C-7.69628906 214.21585938 -6.95507812 214.24421875 -6.19140625 214.2734375 C-2.81445281 213.60146363 -1.28636502 212.25772424 1.125 209.8125 C1.90478323 206.34241087 1.90478323 206.34241087 1.83203125 202.421875 C1.85471321 201.36495453 1.85471321 201.36495453 1.87785339 200.28668213 C1.92070515 198.04496195 1.92956468 195.80458878 1.9375 193.5625 C1.96064669 192.03902675 1.98601241 190.5155855 2.01367188 188.9921875 C2.07649525 185.26565104 2.10885319 181.53956411 2.125 177.8125 C-2.30180011 180.24701407 -2.30180011 180.24701407 -4.6796875 184.390625 C-4.70289062 185.27234375 -4.72609375 186.1540625 -4.75 187.0625 C-4.78867188 187.95453125 -4.82734375 188.8465625 -4.8671875 189.765625 C-4.86976562 190.44109375 -4.87234375 191.1165625 -4.875 191.8125 C-5.865 191.8125 -6.855 191.8125 -7.875 191.8125 C-8.44208298 188.00394268 -8.63214215 184.60319197 -7.875 180.8125 C-5.78023817 178.21482907 -3.60245416 176.37416737 -0.94140625 174.37109375 C1.22961405 172.97392372 1.22961405 172.97392372 2.125 170.8125 C-0.185 170.1525 -2.495 169.4925 -4.875 168.8125 C-4.875 167.8225 -4.875 166.8325 -4.875 165.8125 C-1.19198976 166.41205981 2.46809779 167.07115185 6.125 167.8125 C6.22411689 173.68403231 6.29658611 179.55507413 6.34472656 185.42724609 C6.36480169 187.42342618 6.39206789 189.41954775 6.42675781 191.41552734 C6.47545657 194.2901862 6.49800986 197.1640654 6.515625 200.0390625 C6.53627014 200.92679352 6.55691528 201.81452454 6.57818604 202.72915649 C6.58017504 208.26197441 5.85454463 211.44377508 2.125 215.8125 C-2.1064718 218.83497986 -6.12502684 219.4691255 -11.21875 219.27734375 C-17.24770954 218.22227583 -21.97457322 215.20373948 -25.765625 210.43359375 C-28.70628281 205.75851883 -30.70345393 201.2016119 -31.875 195.8125 C-32.69742188 195.78671875 -33.51984375 195.7609375 -34.3671875 195.734375 C-44.88288975 195.2000899 -52.93192677 193.53480197 -60.40234375 185.7890625 C-64.15119863 180.75744295 -65.07991375 176.83314828 -65.25 170.625 C-65.59121193 166.19142165 -66.40996976 162.84573365 -69.71484375 159.7421875 C-71.42769855 158.32600686 -73.18605921 157.0010616 -74.97509766 155.68286133 C-81.1040263 151.13711081 -83.49467295 145.95348115 -85.875 138.8125 C-86.56669684 131.89553157 -85.80336509 127.03717037 -82.7109375 120.86328125 C-80.84554375 116.2869648 -82.69405108 112.18333049 -84.4375 107.875 C-86.97340392 101.39158061 -86.32144486 96.06688789 -83.82421875 89.671875 C-82.875 87.8125 -82.875 87.8125 -81.26953125 85.97265625 C-79.35938321 83.01379948 -79.67857662 80.98242292 -79.875 77.5 C-80.02171674 69.77579501 -78.87194466 65.72305215 -73.5 60 C-70.84514307 57.35120438 -68.41040031 56.05778705 -64.875 54.8125 C-64.93300781 53.83410156 -64.99101563 52.85570312 -65.05078125 51.84765625 C-65.37269763 42.49368611 -64.68664401 36.22112218 -58.30078125 29.04296875 C-51.99319323 23.00003477 -44.53552802 21.54242488 -36.0390625 21.21875 C-33.29072331 20.70281629 -32.55039208 20.03844585 -30.875 17.8125 C-29.93702507 15.89504683 -29.0455289 13.95453575 -28.1875 12 C-25.43836525 6.33719375 -22.51417075 2.70057733 -16.875 -0.1875 C-11.49299313 -1.93801133 -5.23441186 -2.16203968 0 0 Z " fill="#F1F2F9" transform="translate(96.875,19.1875)"/>
<path d="M0 0 C2.76436175 2.01699359 5.31405802 3.98553574 7 7 C6.96875 8.9765625 6.96875 8.9765625 6 11 C3.8203125 12.95703125 3.8203125 12.95703125 1.125 14.8125 C0.24070312 15.43769531 -0.64359375 16.06289062 -1.5546875 16.70703125 C-2.36164063 17.13371094 -3.16859375 17.56039062 -4 18 C-4.99 17.67 -5.98 17.34 -7 17 C-7 16.34 -7 15.68 -7 15 C-7.5775 14.71125 -8.155 14.4225 -8.75 14.125 C-10.12130432 13.43934784 -11.47920441 12.72469034 -12.80859375 11.9609375 C-17.05026122 10.10095497 -21.48711759 10.26060119 -26 11 C-30.26650593 13.32993586 -33.20678988 16.47110189 -35 21 C-35.98871391 28.30038762 -35.04996941 34.78470041 -31 41 C-27.9208206 43.9886153 -25.2044958 44.207333 -21.0625 44.375 C-15.40455724 44.19004496 -11.81213952 42.66907587 -7.625 38.8125 C-6.820625 37.9153125 -6.820625 37.9153125 -6 37 C-1.22390502 38.64178265 2.79382904 41.26546702 7 44 C5.92694938 49.19758894 3.1718137 52.52851753 -1.15625 55.4609375 C-10.01193331 60.56771487 -19.50643259 61.32968564 -29.59765625 59.5390625 C-38.30444323 56.92856199 -45.11980886 52.08648736 -49.78125 44.265625 C-50.1834375 43.51796875 -50.585625 42.7703125 -51 42 C-51.3403125 41.39671875 -51.680625 40.7934375 -52.03125 40.171875 C-55.52504422 32.73138731 -55.35497771 23.30813425 -52.93359375 15.609375 C-48.5257454 6.04902817 -41.78466773 -0.17657942 -32 -4 C-21.40461113 -7.40155651 -9.51396366 -5.24185325 0 0 Z " fill="#172A7D" transform="translate(494,110)"/>
<path d="M0 0 C5.61 0 11.22 0 17 0 C17 26.07 17 52.14 17 79 C11.39 79 5.78 79 0 79 C0 52.93 0 26.86 0 0 Z " fill="#12A2ED" transform="translate(689,90)"/>
<path d="M0 0 C4.27758333 2.27891939 7.27470599 5.45512829 9 10 C9.82380064 17.86442243 10.05981616 24.6752298 5 31 C0.81172877 34.8075193 -3.23425279 35.34753696 -8.71484375 35.28515625 C-13.11794367 34.73570959 -15.86762483 32.25370108 -18.75 29.0625 C-22.28480045 23.23007926 -22.9182489 17.69946899 -22 11 C-18.01688623 0.94346068 -10.31678218 -1.70581716 0 0 Z " fill="#F8F9FA" transform="translate(406,120)"/>
<path d="M0 0 C2.25390625 2.14453125 2.25390625 2.14453125 4.5625 4.8125 C5.32691406 5.68519531 6.09132812 6.55789062 6.87890625 7.45703125 C10.65976229 11.98988076 12.54455908 15.17823634 14 21 C15.65 21.33 17.3 21.66 19 22 C19.66 20.35 20.32 18.7 21 17 C21.66 17 22.32 17 23 17 C23.33 17.99 23.66 18.98 24 20 C24.99 20.33 25.98 20.66 27 21 C26.56429687 21.37382812 26.12859375 21.74765625 25.6796875 22.1328125 C23.54461084 24.50622329 22.46107079 26.97897629 21.125 29.875 C17.76341197 36.7389322 14.34816576 41.26244805 7 44 C2.9956232 44.5754321 -0.21693416 44.36654146 -3.9375 42.625 C-6 41 -6 41 -7 39 C-7.08698228 36.08300726 -7.11551923 33.19017452 -7.09765625 30.2734375 C-7.0962413 29.41062164 -7.09482635 28.54780579 -7.09336853 27.65884399 C-7.08776188 24.8975277 -7.07520827 22.13629188 -7.0625 19.375 C-7.05748586 17.5052095 -7.0529228 15.63541774 -7.04882812 13.765625 C-7.03779029 9.17705223 -7.0205212 4.58853977 -7 0 C-3.78449914 -1.07183362 -3.03647995 -1.24965004 0 0 Z " fill="#452CC4" transform="translate(139,190)"/>
<path d="M0 0 C0.66 0 1.32 0 2 0 C5.27173538 4.10140991 5.20096925 7.13964334 4.875 12.25 C4.63706393 18.26006206 5.57436196 21.76886913 8.87109375 26.765625 C11.14758508 31.27134487 10.72478268 36.11725351 10 41 C9.09117475 43.70394289 8.05758107 46.1985508 6.77734375 48.74609375 C5.79402218 51.59723218 6.1213714 53.13988088 7 56 C7.64652903 57.23074201 8.33461457 58.44055562 9.0625 59.625 C12.06916093 65.48413413 11.93841327 71.38341851 10.3046875 77.6796875 C6.76370676 87.46945777 0.73548844 92.70047035 -8 98 C-8 94 -8 94 -5.875 91.6875 C-4.92625 90.800625 -3.9775 89.91375 -3 89 C1.57227052 84.33628407 4.02863607 80.24265245 6 74 C4.2984375 73.814375 4.2984375 73.814375 2.5625 73.625 C0.7990625 73.315625 0.7990625 73.315625 -1 73 C-1.33 72.34 -1.66 71.68 -2 71 C-4.66756842 70.51280036 -7.24629868 70.1500589 -9.9375 69.875 C-11.0985022 69.75415039 -11.0985022 69.75415039 -12.28295898 69.63085938 C-13.82438284 69.47737799 -15.3664736 69.33043667 -16.90917969 69.19042969 C-18.63135294 69.03357598 -20.35127018 68.8521511 -22.0703125 68.6640625 C-27.39306535 68.31366184 -31.39370259 69.22100756 -35.5703125 72.66796875 C-38.65419216 77.69823148 -37.51977222 84.32581995 -37 90 C-37.99 90 -38.98 90 -40 90 C-40.39776483 87.66313161 -40.7194883 85.35198273 -41 83 C-41.11472656 82.26652344 -41.22945312 81.53304687 -41.34765625 80.77734375 C-41.69284658 77.11832625 -41.73778398 74.92760218 -39.390625 71.9765625 C-37.33392378 70.14408811 -35.28440488 68.53888357 -33 67 C-32.27941406 66.42378906 -31.55882812 65.84757812 -30.81640625 65.25390625 C-26.62288538 63.38688794 -23.08092972 64.1675628 -18.625 64.8125 C-10.34372576 65.9580115 -10.34372576 65.9580115 -2 66 C-1.34 65.34 -0.68 64.68 0 64 C2.625 63.875 2.625 63.875 5 64 C4.525625 62.989375 4.05125 61.97875 3.5625 60.9375 C1.69757627 56.45451025 0.12489247 52.45766181 1.8359375 47.65234375 C2.19945312 46.81832031 2.56296875 45.98429687 2.9375 45.125 C5.37783621 39.513077 6.35866956 34.63158406 4.1640625 28.765625 C2.65749498 25.66186935 0.91488554 22.87232832 -1 20 C-1.969375 19.690625 -2.93875 19.38125 -3.9375 19.0625 C-7.34306133 17.88097872 -8.36981676 17.16980075 -10 14 C-10.5 11.5625 -10.5 11.5625 -10 9 C-7.6875 6.1875 -7.6875 6.1875 -5 4 C-4.01 4 -3.02 4 -2 4 C-1.67 3.01 -1.34 2.02 -1 1 C-0.67 0.67 -0.34 0.34 0 0 Z " fill="#F4F6FA" transform="translate(209,83)"/>
<path d="M0 0 C3.68301024 0.59955981 7.34309779 1.25865185 11 2 C11.09911689 7.87153231 11.17158611 13.74257413 11.21972656 19.61474609 C11.23980169 21.61092618 11.26706789 23.60704775 11.30175781 25.60302734 C11.35045657 28.4776862 11.37300986 31.3515654 11.390625 34.2265625 C11.41127014 35.11429352 11.43191528 36.00202454 11.45318604 36.91665649 C11.45517504 42.44947441 10.72954463 45.63127508 7 50 C2.7685282 53.02247986 -1.25002684 53.6566255 -6.34375 53.46484375 C-12.37270954 52.40977583 -17.09957322 49.39123948 -20.890625 44.62109375 C-23.83128281 39.94601883 -25.82845393 35.3891119 -27 30 C-27.89203125 29.97421875 -28.7840625 29.9484375 -29.703125 29.921875 C-31.45882812 29.83679688 -31.45882812 29.83679688 -33.25 29.75 C-34.41015625 29.70359375 -35.5703125 29.6571875 -36.765625 29.609375 C-40.46661382 28.91208725 -41.67122429 27.88214816 -44 25 C-43 24 -43 24 -40.92578125 23.8671875 C-40.06339844 23.86976563 -39.20101562 23.87234375 -38.3125 23.875 C-37.46300781 23.87242187 -36.61351562 23.86984375 -35.73828125 23.8671875 C-32.76427694 24.01143307 -29.92591737 24.46022608 -27 25 C-26.52949219 24.278125 -26.05898437 23.55625 -25.57421875 22.8125 C-24.95160156 21.884375 -24.32898438 20.95625 -23.6875 20 C-23.07261719 19.071875 -22.45773438 18.14375 -21.82421875 17.1875 C-21.22222656 16.465625 -20.62023437 15.74375 -20 15 C-19.01 15 -18.02 15 -17 15 C-17.95317768 18.15281849 -18.8361103 20.75720045 -20.6875 23.5 C-22.47322143 26.90137415 -22.06089845 28.32221872 -21 32 C-18.72054 38.34430984 -16.15803337 43.55358951 -10.12109375 47.10546875 C-7.79554262 48.08622604 -6.07882771 48.33138947 -3.5625 48.375 C-2.45068359 48.41753906 -2.45068359 48.41753906 -1.31640625 48.4609375 C2.06054719 47.78896363 3.58863498 46.44522424 6 44 C6.77978323 40.52991087 6.77978323 40.52991087 6.70703125 36.609375 C6.72215256 35.90476135 6.73727386 35.20014771 6.75285339 34.47418213 C6.79570515 32.23246195 6.80456468 29.99208878 6.8125 27.75 C6.83564669 26.22652675 6.86101241 24.7030855 6.88867188 23.1796875 C6.95149525 19.45315104 6.98385319 15.72706411 7 12 C2.57319989 14.43451407 2.57319989 14.43451407 0.1953125 18.578125 C0.17210937 19.45984375 0.14890625 20.3415625 0.125 21.25 C0.06699219 22.58804688 0.06699219 22.58804688 0.0078125 23.953125 C0.00523438 24.62859375 0.00265625 25.3040625 0 26 C-0.99 26 -1.98 26 -3 26 C-3.56708298 22.19144268 -3.75714215 18.79069197 -3 15 C-0.90523817 12.40232907 1.27254584 10.56166737 3.93359375 8.55859375 C6.10461405 7.16142372 6.10461405 7.16142372 7 5 C4.69 4.34 2.38 3.68 0 3 C0 2.01 0 1.02 0 0 Z " fill="#EEECF7" transform="translate(92,185)"/>
<path d="M0 0 C3.66417373 0.20938136 4.93389048 0.93755747 7.64526367 3.49853516 C10.7717177 7.43596223 10.64515431 11.03393394 10.48828125 15.8984375 C10.48120651 16.73339752 10.47413177 17.56835754 10.46684265 18.42861938 C10.43899925 21.07834973 10.37628406 23.72591559 10.3125 26.375 C10.28740393 28.17835475 10.26459305 29.98174285 10.24414062 31.78515625 C10.18920611 36.19092983 10.10300712 40.59509879 10 45 C9.13697266 45.11609619 8.27394531 45.23219238 7.38476562 45.35180664 C-1.27029265 46.58021686 -1.27029265 46.58021686 -9.5 49.4375 C-10.4384375 49.84871094 -11.376875 50.25992188 -12.34375 50.68359375 C-18.42564369 53.54242089 -18.42564369 53.54242089 -22.125 58.875 C-22.44984375 59.57882813 -22.7746875 60.28265625 -23.109375 61.0078125 C-23.40328125 61.66523437 -23.6971875 62.32265625 -24 63 C-26.22379332 67.44758664 -28.52866961 69.72049823 -33 72 C-36.75748654 71.85548129 -38.32551748 71.67448252 -41 69 C-42.155 68.835 -43.31 68.67 -44.5 68.5 C-48 68 -48 68 -50 66 C-50.25 63.5 -50.25 63.5 -50 61 C-48 59 -48 59 -45.5 58.75 C-43 59 -43 59 -41 61 C-40.875 63.625 -40.875 63.625 -41 66 C-39.58566794 66.2236337 -38.16832382 66.42826476 -36.75 66.625 C-35.56664062 66.79902344 -35.56664062 66.79902344 -34.359375 66.9765625 C-31.56902155 67.00428124 -30.24531527 66.65936677 -28 65 C-27.15898215 62.8275654 -27.15898215 62.8275654 -26.75 60.3125 C-25.10448076 54.27022301 -22.25325285 51.29583061 -17 48 C-11.20300488 45.04142995 -6.56660773 43 0 43 C0 39.37 0 35.74 0 32 C-1.32 31.34 -2.64 30.68 -4 30 C-4.125 27.625 -4.125 27.625 -4 25 C-2 23 -2 23 1.0625 22.8125 C4 23 4 23 5 24 C5.04092937 26.33297433 5.04241723 28.66705225 5 31 C4.34 31 3.68 31 3 31 C3 34.63 3 38.26 3 42 C3.99 42 4.98 42 6 42 C5.95582332 37.23044243 5.88596836 32.46220577 5.79248047 27.69335938 C5.76428653 26.07172163 5.74306406 24.44994687 5.72900391 22.828125 C5.70755128 20.49407895 5.66089425 18.16167739 5.609375 15.828125 C5.60814636 15.10506165 5.60691772 14.38199829 5.60565186 13.63702393 C5.50590389 10.19515879 5.28305918 8.34981434 3.08691406 5.63574219 C2.0538916 4.8260498 2.0538916 4.8260498 1 4 C0.34 3.34 -0.32 2.68 -1 2 C-0.67 1.34 -0.34 0.68 0 0 Z " fill="#EDF8FC" transform="translate(93,19)"/>
<path d="M0 0 C0.89203125 0.00902344 1.7840625 0.01804687 2.703125 0.02734375 C3.37859375 0.03894531 4.0540625 0.05054687 4.75 0.0625 C4.42 1.0525 4.09 2.0425 3.75 3.0625 C2.80640625 3.17464844 2.80640625 3.17464844 1.84375 3.2890625 C-4.78656157 4.30757422 -9.62787134 6.06811937 -14.25 11.0625 C-16.34196922 14.2478718 -17.81622311 17.53906956 -19.25 21.0625 C-19.65476563 21.96613281 -20.05953125 22.86976562 -20.4765625 23.80078125 C-22.8955447 29.6178575 -23.58794532 33.84880657 -22.4140625 40.06640625 C-22.35992187 40.72511719 -22.30578125 41.38382813 -22.25 42.0625 C-24.25 44.0625 -24.25 44.0625 -26.75 44.3125 C-29.25 44.0625 -29.25 44.0625 -31.25 42.0625 C-31.5625 39.625 -31.5625 39.625 -31.25 37.0625 C-30.25 36.0625 -29.25 35.0625 -28.25 34.0625 C-27.50613932 31.75261685 -26.82809297 29.41934056 -26.25 27.0625 C-34.9224229 27.24386246 -42.30409679 28.66235163 -48.94921875 34.57421875 C-52.64761269 39.28993595 -52.4485766 43.90169788 -52.5 49.625 C-52.58090766 57.15669401 -52.58090766 57.15669401 -55.16015625 60.6484375 C-57.46148813 62.42214695 -59.63994353 63.79475829 -62.25 65.0625 C-62.96542969 65.46597656 -63.68085937 65.86945313 -64.41796875 66.28515625 C-65.02253906 66.54167969 -65.62710938 66.79820313 -66.25 67.0625 C-66.91 66.7325 -67.57 66.4025 -68.25 66.0625 C-66.88088196 62.9135285 -65.3747864 61.0146513 -62.75 58.8125 C-61.83734375 58.03132813 -61.83734375 58.03132813 -60.90625 57.234375 C-59.25 56.0625 -59.25 56.0625 -57.25 56.0625 C-57.30800781 55.08410156 -57.36601563 54.10570312 -57.42578125 53.09765625 C-57.74769763 43.74368611 -57.06164401 37.47112218 -50.67578125 30.29296875 C-44.36819323 24.25003477 -36.91052802 22.79242488 -28.4140625 22.46875 C-25.66572331 21.95281629 -24.92539208 21.28844585 -23.25 19.0625 C-22.31202507 17.14504683 -21.4205289 15.20453575 -20.5625 13.25 C-17.81336525 7.58719375 -14.88917075 3.95057733 -9.25 1.0625 C-6.13089922 0.01855606 -3.27566032 -0.04310079 0 0 Z " fill="#F0F9FC" transform="translate(89.25,17.9375)"/>
<path d="M0 0 C1.010625 0.28875 2.02125 0.5775 3.0625 0.875 C2.918125 1.555625 2.77375 2.23625 2.625 2.9375 C2.439375 3.906875 2.25375 4.87625 2.0625 5.875 C1.815 7.03 1.5675 8.185 1.3125 9.375 C1.0228532 13.43005527 1.84673056 14.59566122 4.0625 17.875 C4.0625 19.195 4.0625 20.515 4.0625 21.875 C2.6084375 22.3390625 2.6084375 22.3390625 1.125 22.8125 C-1.77815792 23.57023342 -1.77815792 23.57023342 -2.9375 24.875 C-5.86958144 24.83641998 -8.76225284 24.72881078 -11.6875 24.5625 C-12.49960938 24.52705078 -13.31171875 24.49160156 -14.1484375 24.45507812 C-18.46131689 24.2197663 -22.00281392 23.83434571 -25.9375 21.875 C-25.6075 21.215 -25.2775 20.555 -24.9375 19.875 C-23.6175 19.875 -22.2975 19.875 -20.9375 19.875 C-20.7725 18.864375 -20.6075 17.85375 -20.4375 16.8125 C-19.19518092 12.44235629 -16.55965852 10.355026 -13.0859375 7.58984375 C-10.92818323 5.92857249 -10.92818323 5.92857249 -9.1015625 4.06640625 C-4.7952411 -0.15222988 -4.7952411 -0.15222988 0 0 Z " fill="#3056CF" transform="translate(209.9375,125.125)"/>
<path d="M0 0 C1.32 0 2.64 0 4 0 C4.66 6.93 5.32 13.86 6 21 C7.83836919 17.32326162 8.93651813 13.95007553 10 10 C10.99 10 11.98 10 13 10 C15.03219488 13.40351338 15.36891039 16.3232927 15.625 20.25 C15.69976562 21.32765625 15.77453125 22.4053125 15.8515625 23.515625 C15.92503906 24.74539062 15.92503906 24.74539062 16 26 C13 25 13 25 11 22 C10.79503906 23.05960938 10.59007813 24.11921875 10.37890625 25.2109375 C10.10692334 26.59898822 9.83477956 27.98700744 9.5625 29.375 C9.42779297 30.07367188 9.29308594 30.77234375 9.15429688 31.4921875 C8.11328125 36.7734375 8.11328125 36.7734375 7 39 C5.515 38.505 5.515 38.505 4 38 C3.01 31.07 2.02 24.14 1 17 C-0.32 21.95 -1.64 26.9 -3 32 C-4.32 32 -5.64 32 -7 32 C-7.53414112 30.10787298 -8.05178329 28.21108364 -8.5625 26.3125 C-8.99755859 24.72888672 -8.99755859 24.72888672 -9.44140625 23.11328125 C-10.00124767 19.99304618 -9.84690764 18.02306766 -9 15 C-7.515 15.99 -7.515 15.99 -6 17 C-5.8125 20.625 -5.8125 20.625 -6 24 C-5.34 24 -4.68 24 -4 24 C-3.96261719 23.35675781 -3.92523438 22.71351562 -3.88671875 22.05078125 C-3.33646545 14.48749574 -1.85653043 7.34438767 0 0 Z " fill="#E5ECF8" transform="translate(113,104)"/>
<path d="M0 0 C2.80115969 2.42012144 3.92808739 4.7908565 5.26171875 8.21875 C5.65810547 9.23324219 6.05449219 10.24773437 6.46289062 11.29296875 C6.86701172 12.35128906 7.27113281 13.40960938 7.6875 14.5 C8.10322266 15.55832031 8.51894531 16.61664063 8.94726562 17.70703125 C12 25.59702124 12 25.59702124 12 29 C4.41 29 -3.18 29 -11 29 C-7.625 17.75 -7.625 17.75 -5.95703125 13.8671875 C-5.60576172 13.0421875 -5.25449219 12.2171875 -4.89257812 11.3671875 C-4.53615234 10.54476562 -4.17972656 9.72234375 -3.8125 8.875 C-3.44447266 8.01390625 -3.07644531 7.1528125 -2.69726562 6.265625 C-1.80293562 4.17498344 -0.90382824 2.08654837 0 0 Z " fill="#F4FAFB" transform="translate(639,109)"/>
<path d="M0 0 C3.02508145 1.73602105 5.41790069 3.83580137 7 7 C7.50533836 11.37959914 7.27875307 13.51443013 5.0625 17.375 C2.19368203 20.39866894 -0.68625301 21.09394423 -4.77734375 21.3125 C-8.67346466 20.76471499 -10.35907923 18.83898983 -13 16 C-14.60086627 12.79826746 -14.49917089 9.47422941 -14 6 C-10.37898357 0.32707427 -6.66444879 -1.13753115 0 0 Z " fill="#1AA6EF" transform="translate(588,149)"/>
<path d="M0 0 C6.64481896 0.89449486 6.64481896 0.89449486 8.91748047 1.56958008 C11.47896841 2.09899429 13.48386405 1.82355441 16.0703125 1.44921875 C34.367856 -0.89487518 34.367856 -0.89487518 40.1875 2.625 C42.23046875 4.2265625 42.23046875 4.2265625 44 6 C44.7321875 6.61746094 45.464375 7.23492187 46.21875 7.87109375 C48.47935479 10.57291307 48.45229111 11.96200379 48.3125 15.4375 C48.27576172 16.82775391 48.27576172 16.82775391 48.23828125 18.24609375 C48.00902183 20.89573135 47.57897977 23.40635893 47 26 C46.01 26 45.02 26 44 26 C44.08701172 24.57107422 44.08701172 24.57107422 44.17578125 23.11328125 C44.68478341 15.49022552 44.68478341 15.49022552 41.75 8.75 C33.52799107 3.5178125 25.94605828 4.77646044 16.5625 5.8125 C15.51497559 5.91739746 15.51497559 5.91739746 14.44628906 6.02441406 C10.57383938 6.49786018 8.51017994 6.99417944 6 10 C2.8125 10.6875 2.8125 10.6875 0 11 C0 7.37 0 3.74 0 0 Z " fill="#E9EAF7" transform="translate(15,147)"/>
<path d="M0 0 C2.13586678 3.20380017 2.23132175 4.01939967 2.125 7.6875 C2.10695312 8.49574219 2.08890625 9.30398437 2.0703125 10.13671875 C2.04710937 10.75160156 2.02390625 11.36648437 2 12 C0.68528432 11.71848913 -0.62675767 11.42446661 -1.9375 11.125 C-2.66839844 10.96257812 -3.39929688 10.80015625 -4.15234375 10.6328125 C-6 10 -6 10 -7 8 C-9.66756842 7.51280036 -12.24629868 7.1500589 -14.9375 6.875 C-16.0985022 6.75415039 -16.0985022 6.75415039 -17.28295898 6.63085938 C-18.82438284 6.47737799 -20.3664736 6.33043667 -21.90917969 6.19042969 C-23.63135294 6.03357598 -25.35127018 5.8521511 -27.0703125 5.6640625 C-32.39306535 5.31366184 -36.39370259 6.22100756 -40.5703125 9.66796875 C-43.65419216 14.69823148 -42.51977222 21.32581995 -42 27 C-42.99 27 -43.98 27 -45 27 C-45.39776483 24.66313161 -45.7194883 22.35198273 -46 20 C-46.17208984 18.89978516 -46.17208984 18.89978516 -46.34765625 17.77734375 C-46.69284658 14.11832625 -46.73778398 11.92760218 -44.390625 8.9765625 C-42.33392378 7.14408811 -40.28440488 5.53888357 -38 4 C-37.27941406 3.42378906 -36.55882812 2.84757813 -35.81640625 2.25390625 C-31.62288538 0.38688794 -28.08092972 1.1675628 -23.625 1.8125 C-15.34372576 2.9580115 -15.34372576 2.9580115 -7 3 C-6.34 2.34 -5.68 1.68 -5 1 C-2.375 0.375 -2.375 0.375 0 0 Z " fill="#E1E4F6" transform="translate(214,146)"/>
<path d="M0 0 C3.29714793 0.32971479 4.6226839 0.6226839 7 3 C6.43181818 8.56818182 6.43181818 8.56818182 5 10 C3.948125 9.87625 2.89625 9.7525 1.8125 9.625 C-4.98391646 9.4510515 -11.20679007 13.81047993 -17 17 C-13.22654914 22.16718293 -13.22654914 22.16718293 -7.44140625 24.34375 C-6.01634766 24.42109375 -6.01634766 24.42109375 -4.5625 24.5 C-0.8383721 24.70267363 1.76347332 25.1024619 5 27 C5 27.99 5 28.98 5 30 C-8.53352398 30.57089307 -8.53352398 30.57089307 -14.32421875 26.8828125 C-20.86889871 20.59021008 -20.86889871 20.59021008 -21.2109375 16.44140625 C-19.36085495 12.71140111 -16.15655667 11.43640846 -12.5625 9.6875 C-11.86833984 9.32849609 -11.17417969 8.96949219 -10.45898438 8.59960938 C-5.34394345 6 -5.34394345 6 -3 6 C-2.87625 5.38125 -2.7525 4.7625 -2.625 4.125 C-2 2 -2 2 0 0 Z " fill="#ECEEF9" transform="translate(49,110)"/>
<path d="M0 0 C7.05889737 0.70588974 14.01204964 1.78213386 21 3 C21.4296875 5.07421875 21.4296875 5.07421875 21 8 C18.98170516 10.57174793 16.57662859 12.66072813 14.125 14.8125 C13.14853516 15.7087207 13.14853516 15.7087207 12.15234375 16.62304688 C7.30017857 21 7.30017857 21 5 21 C4.67 22.65 4.34 24.3 4 26 C2.34385343 26.38218767 0.67542976 26.71395102 -1 27 C-2 26 -2 26 -2.0625 22.9375 C-2.041875 21.968125 -2.02125 20.99875 -2 20 C-0.576875 19.5359375 -0.576875 19.5359375 0.875 19.0625 C6.51226128 16.68283643 13.2381677 11.5236646 16 6 C14.77023438 5.81824219 14.77023438 5.81824219 13.515625 5.6328125 C11.89914063 5.38144531 11.89914063 5.38144531 10.25 5.125 C9.18265625 4.96257812 8.1153125 4.80015625 7.015625 4.6328125 C4.32291129 4.06776118 2.36427561 3.36577086 0 2 C0 1.34 0 0.68 0 0 Z " fill="#EDF1F9" transform="translate(186,117)"/>
<path d="M0 0 C-2 1 -2 1 -5.5 0.375 C-11.61824755 -0.44519985 -17.05492858 1.0679496 -22.203125 4.4453125 C-27.49798654 8.79033246 -32.53998128 14.58026942 -34.71875 21.17578125 C-36 23 -36 23 -39.1953125 23.90625 C-41.14050781 24.20015625 -41.14050781 24.20015625 -43.125 24.5 C-52.86675676 26.18518541 -59.78481901 29.03137409 -66 37 C-67.3045656 39.99615946 -67.3045656 39.99615946 -68 43 C-68.97004121 45.01470098 -69.96244882 47.01922047 -71 49 C-72.16323367 45.63194434 -71.89744797 43.9108361 -70.4375 40.6875 C-65.88404758 31.33529133 -59.8386534 26.58849436 -50 23 C-47.88129364 22.71852935 -45.75515612 22.48736356 -43.625 22.3125 C-39.24084507 21.76923531 -39.24084507 21.76923531 -36.23046875 18.72265625 C-35.27272177 16.79924703 -34.35541482 14.85524563 -33.4765625 12.89453125 C-30.01151748 6.101943 -23.3327877 1.39137723 -16.3359375 -1.3828125 C-10.62741199 -2.89108513 -5.18005591 -2.96341871 0 0 Z " fill="#28C2F4" transform="translate(97,12)"/>
<path d="M0 0 C2.5 0.25 2.5 0.25 4.5 2.25 C4.625 4.875 4.625 4.875 4.5 7.25 C5.91433206 7.4736337 7.33167618 7.67826476 8.75 7.875 C9.93335938 8.04902344 9.93335938 8.04902344 11.140625 8.2265625 C13.87077368 8.25368318 15.25079804 7.77624419 17.5 6.25 C18.31171228 3.69480079 18.31171228 3.69480079 18.5 1.25 C19.49 0.92 20.48 0.59 21.5 0.25 C21.32188279 4.79198884 20.96784177 6.74951811 17.8125 10.125 C14.43175582 12.29377929 12.49957819 13.25 8.5 13.25 C7.14082143 12.28542166 5.80915279 11.28145371 4.5 10.25 C2.17085177 9.88858045 -0.16253478 9.55300475 -2.5 9.25 C-4.5 7.25 -4.5 7.25 -4.75 4.75 C-4.40058445 1.25584452 -3.49415548 0.34941555 0 0 Z " fill="#EEF4FB" transform="translate(47.5,77.75)"/>
<path d="M0 0 C0 0.33 0 0.66 0 1 C-0.99 1.13535156 -1.98 1.27070312 -3 1.41015625 C-10.37259981 2.55696364 -15.99619856 3.69838672 -21.58203125 8.98828125 C-25.0373527 13.89045907 -25.06799867 18.07883178 -24.5 23.875 C-24.40900768 28.17893682 -24.37337049 30.21082373 -27.078125 33.6171875 C-30.8188945 36.60324035 -34.68512824 38.94337888 -39 41 C-38.11362622 39.88822533 -37.2153535 38.78593386 -36.3125 37.6875 C-35.56419922 36.76517578 -35.56419922 36.76517578 -34.80078125 35.82421875 C-33 34 -33 34 -30.3203125 32.77734375 C-27.57150026 31.10492658 -27.57150026 31.10492658 -27.50390625 27.3046875 C-27.50942124 25.82800613 -27.52966807 24.35132664 -27.5625 22.875 C-27.42896954 16.56385881 -27.06201863 11.81488594 -22.921875 6.73828125 C-15.99642076 0.47440496 -9.11358363 -0.77967921 0 0 Z " fill="#3196E8" transform="translate(63,45)"/>
<path d="M0 0 C4.80201796 1.45515696 9.09181819 3.85481691 12 8 C12.98216344 13.44581678 12.16238453 18.64334463 11 24 C10.01 24 9.02 24 8 24 C8.05800781 23.04738281 8.11601563 22.09476563 8.17578125 21.11328125 C8.68478341 13.49022552 8.68478341 13.49022552 5.75 6.75 C2.48316404 4.66508701 2.48316404 4.66508701 -1 3 C-0.67 2.01 -0.34 1.02 0 0 Z " fill="#F0F0F8" transform="translate(51,149)"/>
<path d="M0 0 C0 0.99 0 1.98 0 3 C-1.30246459 3.80241122 -2.64320181 4.54333428 -4 5.25 C-6.33030301 6.69216219 -6.33030301 6.69216219 -8 9 C-8.72499647 14.085637 -8.4672554 18.89912859 -8 24 C-8.99 24 -9.98 24 -11 24 C-11.39776483 21.66313161 -11.7194883 19.35198273 -12 17 C-12.17208984 15.89978516 -12.17208984 15.89978516 -12.34765625 14.77734375 C-12.70172575 11.02420709 -12.73897341 8.90225455 -10.28515625 5.90625 C-3.59221311 0 -3.59221311 0 0 0 Z " fill="#F3F3FA" transform="translate(180,149)"/>
<path d="M0 0 C1.9375 0.75 1.9375 0.75 3.9375 2.75 C3.5625 5.875 3.5625 5.875 2.9375 8.75 C1.6175 9.08 0.2975 9.41 -1.0625 9.75 C-1.3925 12.72 -1.7225 15.69 -2.0625 18.75 C-2.3925 18.75 -2.7225 18.75 -3.0625 18.75 C-3.15337891 17.68458984 -3.15337891 17.68458984 -3.24609375 16.59765625 C-3.32988281 15.67855469 -3.41367188 14.75945312 -3.5 13.8125 C-3.58121094 12.89597656 -3.66242188 11.97945312 -3.74609375 11.03515625 C-3.82294976 8.78840268 -3.82294976 8.78840268 -5.0625 7.75 C-5.3125 4.8125 -5.3125 4.8125 -5.0625 1.75 C-2.0625 -0.25 -2.0625 -0.25 0 0 Z " fill="#EAE9F8" transform="translate(189.0625,167.25)"/>
<path d="M0 0 C2.13586678 3.20380017 2.23132175 4.01939967 2.125 7.6875 C2.10695312 8.49574219 2.08890625 9.30398437 2.0703125 10.13671875 C2.03550781 11.05904297 2.03550781 11.05904297 2 12 C-0.64 11.34 -3.28 10.68 -6 10 C-6.625 6.625 -6.625 6.625 -7 3 C-4.64046906 0.64046906 -3.22104383 0.50858587 0 0 Z " fill="#51D9F8" transform="translate(214,146)"/>
<path d="M0 0 C1.4540625 0.0309375 1.4540625 0.0309375 2.9375 0.0625 C3.22625 0.701875 3.515 1.34125 3.8125 2 C4.76573451 4.21456079 4.76573451 4.21456079 6.9375 5.0625 C6.2775 5.0625 5.6175 5.0625 4.9375 5.0625 C5.2675 6.0525 5.5975 7.0425 5.9375 8.0625 C1.4825 8.5575 1.4825 8.5575 -3.0625 9.0625 C-5.0625 6.0625 -5.0625 6.0625 -4.75 3.4375 C-3.74055958 -0.0496578 -3.77085022 0.07695613 0 0 Z " fill="#2FCEF9" transform="translate(181.0625,111.9375)"/>
<path d="M0 0 C3.4375 2 3.4375 2 6 4 C3 4 3 4 0 3 C-5.04620258 2.62620722 -8.00308822 2.82296756 -12 6 C-17.60823894 10.96467054 -20.03075973 17.26134878 -22.703125 24.0859375 C-24 27 -24 27 -26 28 C-23.30947179 17.71911986 -20.21328723 8.10096872 -11 2 C-7.16432867 -0.16831323 -4.43950926 -0.45925958 0 0 Z " fill="#2BB3F3" transform="translate(92,21)"/>
<path d="M0 0 C6.72 0.72 6.72 0.72 8 2 C8.2982732 4.83359542 8.35602594 6.43785378 6.8125 8.875 C5 10 5 10 2.4375 9.875 C0 9 0 9 -2 6 C-1.45945946 1.45945946 -1.45945946 1.45945946 0 0 Z " fill="#0BCCFC" transform="translate(57,173)"/>
<path d="M0 0 C6.75 0.75 6.75 0.75 9 3 C8.67028521 6.29714793 8.3773161 7.6226839 6 10 C4.01178687 10.39764263 2.01055661 10.73775349 0 11 C0 7.37 0 3.74 0 0 Z " fill="#4DD7FB" transform="translate(15,147)"/>
<path d="M0 0 C2.31 0.33 4.62 0.66 7 1 C7 3.31 7 5.62 7 8 C6.01 8.495 6.01 8.495 5 9 C4.5316735 11.58605332 4.5316735 11.58605332 4.375 14.5625 C4.26285156 16.08037109 4.26285156 16.08037109 4.1484375 17.62890625 C4.09945312 18.41136719 4.05046875 19.19382812 4 20 C3.67 20 3.34 20 3 20 C3 16.7 3 13.4 3 10 C2.01 10 1.02 10 0 10 C-1.125 3.375 -1.125 3.375 0 0 Z " fill="#50D2FA" transform="translate(135,42)"/>
<path d="M0 0 C6.875 0.875 6.875 0.875 8 2 C7.28 8.72 7.28 8.72 6 10 C3.5625 10.1875 3.5625 10.1875 1 10 C-1 8 -1 8 -1.1875 5 C-1 2 -1 2 0 0 Z " fill="#11D7FB" transform="translate(168,173)"/>
<path d="M0 0 C0.33 0 0.66 0 1 0 C1.05447047 1.41623216 1.09300508 2.83308191 1.125 4.25 C1.14820313 5.03890625 1.17140625 5.8278125 1.1953125 6.640625 C0.9828378 9.20731941 0.28654105 10.7916067 -1 13 C-2.98 12.34 -4.96 11.68 -7 11 C-7 9.35 -7 7.7 -7 6 C-9.64 6 -12.28 6 -15 6 C-15 5.67 -15 5.34 -15 5 C-14.41992188 4.93941406 -13.83984375 4.87882812 -13.2421875 4.81640625 C-8.79907137 4.33983439 -4.40094577 3.78991334 0 3 C0 2.01 0 1.02 0 0 Z " fill="#3EB5F2" transform="translate(214,114)"/>
<path d="M0 0 C2.9375 0.1875 2.9375 0.1875 3.9375 1.1875 C3.97842937 3.52047433 3.97991723 5.85455225 3.9375 8.1875 C3.2775 8.1875 2.6175 8.1875 1.9375 8.1875 C1.9375 8.8475 1.9375 9.5075 1.9375 10.1875 C-2.8125 9.4375 -2.8125 9.4375 -5.0625 7.1875 C-5.3125 4.6875 -5.3125 4.6875 -5.0625 2.1875 C-3.0625 0.1875 -3.0625 0.1875 0 0 Z " fill="#56D8FC" transform="translate(94.0625,41.8125)"/>
<path d="M0 0 C2.5625 0.375 2.5625 0.375 4.375 2.0625 C5.73827792 4.71730436 5.80785485 6.43074183 5.5625 9.375 C-0.4921875 9.5703125 -0.4921875 9.5703125 -2.4375 9.375 C-4.4375 7.375 -4.4375 7.375 -4.6875 4.875 C-4.34210225 1.42102249 -3.42088054 0.52628931 0 0 Z " fill="#36C0F9" transform="translate(23.4375,120.625)"/>
<path d="M0 0 C10.17627378 0.03010732 10.17627378 0.03010732 12.890625 1.1328125 C14.015625 3.68359375 14.015625 3.68359375 14.890625 6.1328125 C12.63988672 6.07263233 10.38990175 5.98380044 8.140625 5.8828125 C6.88765625 5.83640625 5.6346875 5.79 4.34375 5.7421875 C0.48543864 5.06130903 -0.71853705 4.15154728 -3.109375 1.1328125 C-2.109375 0.1328125 -2.109375 0.1328125 0 0 Z " fill="#E3DBF7" transform="translate(51.109375,208.8671875)"/>
<path d="M0 0 C0 0.33 0 0.66 0 1 C-0.71285156 1.17015625 -1.42570312 1.3403125 -2.16015625 1.515625 C-12.02823973 4.01252903 -19.14529213 7.30157689 -25 16 C-25.99573491 18.38976378 -26.75393778 20.70836057 -27.39453125 23.21484375 C-28 25 -28 25 -30 26 C-29.35955805 18.31469658 -27.02643775 12.57693799 -21.3125 7.25 C-14.63938686 1.83970233 -8.58779285 -0.62456675 0 0 Z " fill="#21B6F0" transform="translate(55,35)"/>
<path d="M0 0 C0.66 0.66 1.32 1.32 2 2 C1.625 5.125 1.625 5.125 1 8 C-1.3125 8.6875 -1.3125 8.6875 -4 9 C-5.8125 7.9375 -5.8125 7.9375 -7 6 C-7.1875 2.8125 -7.1875 2.8125 -7 0 C-4.29393021 -1.35303489 -2.8671629 -0.7884698 0 0 Z " fill="#10D1FB" transform="translate(158,204)"/>
<path d="M0 0 C2.5 0.25 2.5 0.25 4.5 2.25 C4.6875 5.3125 4.6875 5.3125 4.5 8.25 C3.5 9.25 3.5 9.25 0.5625 9.4375 C-2.5 9.25 -2.5 9.25 -4.5 7.25 C-4.75 4.75 -4.75 4.75 -4.5 2.25 C-2.5 0.25 -2.5 0.25 0 0 Z " fill="#05DBFC" transform="translate(89.5,210.75)"/>
<path d="M0 0 C3.625 0.375 3.625 0.375 7 1 C7.125 3.875 7.125 3.875 7 7 C5 9 5 9 1.875 9.125 C0.451875 9.063125 0.451875 9.063125 -1 9 C-1.625 5.625 -1.625 5.625 -2 2 C-1.34 1.34 -0.68 0.68 0 0 Z " fill="#0FCCFD" transform="translate(73,191)"/>
<path d="M0 0 C2.5625 0.1875 2.5625 0.1875 4.5625 2.1875 C3.99431818 7.75568182 3.99431818 7.75568182 2.5625 9.1875 C0.125 9.4375 0.125 9.4375 -2.4375 9.1875 C-4.4375 6.1875 -4.4375 6.1875 -4.125 3.5625 C-3.16420807 0.24340062 -3.16420807 0.24340062 0 0 Z " fill="#14CAFD" transform="translate(42.4375,166.8125)"/>
<path d="M0 0 C0.66 0.33 1.32 0.66 2 1 C1.2884375 1.8353125 1.2884375 1.8353125 0.5625 2.6875 C-1.12395996 5.18346074 -1.58953107 7.0446237 -2 10 C-3.65614657 10.38218767 -5.32457024 10.71395102 -7 11 C-8 10 -8 10 -8.0625 6.9375 C-8.041875 5.968125 -8.02125 4.99875 -8 4 C-6.865625 3.525625 -5.73125 3.05125 -4.5625 2.5625 C-1.24259834 1.36377917 -1.24259834 1.36377917 0 0 Z " fill="#F3F4FB" transform="translate(192,133)"/>
<path d="M0 0 C0.79921875 0.00902344 1.5984375 0.01804687 2.421875 0.02734375 C3.02515625 0.03894531 3.6284375 0.05054688 4.25 0.0625 C4.58 0.7225 4.91 1.3825 5.25 2.0625 C4.52554688 2.09988281 3.80109375 2.13726562 3.0546875 2.17578125 C-5.38856346 2.74992232 -10.49613817 4.50554938 -16.55078125 10.46484375 C-17.92797294 12.29960402 -18.21159017 13.85824094 -18.75 16.0625 C-19.41 16.3925 -20.07 16.7225 -20.75 17.0625 C-20.46083835 11.1346861 -17.88452754 8.00727869 -13.75 4.0625 C-9.24076503 0.84161788 -5.48270579 -0.08062803 0 0 Z " fill="#29C5F4" transform="translate(141.75,9.9375)"/>
<path d="M0 0 C1.32 0 2.64 0 4 0 C4.21192221 5.19209404 3.5912689 9.126739 2 14 C1.01 13.67 0.02 13.34 -1 13 C-1.02686553 11.02090602 -1.04633375 9.04171029 -1.0625 7.0625 C-1.07410156 5.96035156 -1.08570312 4.85820312 -1.09765625 3.72265625 C-1 1 -1 1 0 0 Z " fill="#EFF3FA" transform="translate(118,129)"/>
<path d="M0 0 C0.99 0.66 1.98 1.32 3 2 C1.40153531 6.24908336 -1.8130392 8.82225739 -5.125 11.75 C-5.68832031 12.25660156 -6.25164062 12.76320312 -6.83203125 13.28515625 C-8.21651531 14.52884532 -9.60761488 15.76516305 -11 17 C-11.99 16.67 -12.98 16.34 -14 16 C-13.32453125 15.34773437 -12.6490625 14.69546875 -11.953125 14.0234375 C-5.3083956 7.54394465 -5.3083956 7.54394465 0 0 Z " fill="#F6F7FB" transform="translate(204,121)"/>
<path d="M0 0 C0.99 0 1.98 0 3 0 C3 3.3 3 6.6 3 10 C3.99 10 4.98 10 6 10 C5.67 10.99 5.34 11.98 5 13 C2.36 12.67 -0.28 12.34 -3 12 C-2.34 11.01 -1.68 10.02 -1 9 C-0.54605448 6.72087062 -0.54605448 6.72087062 -0.375 4.3125 C-0.30023438 3.50425781 -0.22546875 2.69601563 -0.1484375 1.86328125 C-0.09945312 1.24839844 -0.05046875 0.63351563 0 0 Z " fill="#F9FCFD" transform="translate(135,52)"/>
<path d="M0 0 C5.73842251 -0.20413361 10.60539047 -0.27141454 16 2 C12.79984144 3.06671952 11.11455706 2.94845472 7.8125 2.5625 C6.91144531 2.46066406 6.01039063 2.35882813 5.08203125 2.25390625 C4.39496094 2.17011719 3.70789063 2.08632813 3 2 C3.57452746 5.93075644 3.57452746 5.93075644 6 9 C6.25 12 6.25 12 6 15 C4 17 4 17 0.875 17.125 C-0.548125 17.063125 -0.548125 17.063125 -2 17 C-2 16.67 -2 16.34 -2 16 C-0.02 15.34 1.96 14.68 4 14 C3.65555119 11.52733235 3.65555119 11.52733235 3 9 C2.34 8.67 1.68 8.34 1 8 C0.40644386 5.35139573 0.25790731 2.70802678 0 0 Z " fill="#26ACEF" transform="translate(168,45)"/>
<path d="M0 0 C6.93 0 13.86 0 21 0 C15 7 15 7 12 9 C12 6 12 6 14 2 C7.07 1.505 7.07 1.505 0 1 C0 0.67 0 0.34 0 0 Z " fill="#3F5096" transform="translate(552,106)"/>
<path d="M0 0 C1.59412284 3.18824568 1.10174735 6.62896662 1.0625 10.125 C1.05798828 10.87910156 1.05347656 11.63320313 1.04882812 12.41015625 C1.03703499 14.27347127 1.01909942 16.13674555 1 18 C0.01 18 -0.98 18 -2 18 C-2 12.39 -2 6.78 -2 1 C-1.34 0.67 -0.68 0.34 0 0 Z " fill="#22A6ED" transform="translate(134,43)"/>
<path d="M0 0 C2.30859375 1.02734375 2.30859375 1.02734375 4 2 C2.0625 2.5625 2.0625 2.5625 0 3 C-0.33 2.67 -0.66 2.34 -1 2 C-4.92083317 1.62299681 -7.25771462 1.55808629 -10.68359375 3.59765625 C-13.67528314 6.7003358 -13.68497308 8.49910271 -13.8125 12.75 C-13.86019531 13.92046875 -13.90789062 15.0909375 -13.95703125 16.296875 C-13.97121094 17.18890625 -13.98539063 18.0809375 -14 19 C-14.33 19 -14.66 19 -15 19 C-15.76829268 6.38292683 -15.76829268 6.38292683 -13.125 1.625 C-8.75454969 -0.64763416 -4.83622629 -0.74705935 0 0 Z " fill="#11B4F5" transform="translate(147,22)"/>
<path d="M0 0 C-2.88341534 4.21422242 -5.04303419 5.76075855 -10 7 C-10.3125 4.6875 -10.3125 4.6875 -10 2 C-6.51622514 -0.98609274 -4.33645582 -1.36288612 0 0 Z " fill="#1B3083" transform="translate(424,160)"/>
<path d="M0 0 C0.33 0 0.66 0 1 0 C1.47855444 3.02777715 1.60488658 5.14937825 -0.21875 7.71386719 C-1.91975017 9.50993527 -3.67857412 11.2012573 -5.5 12.875 C-6.12003906 13.46796875 -6.74007813 14.0609375 -7.37890625 14.671875 C-8.90606773 16.12855211 -10.45133343 17.56620705 -12 19 C-12 15.30159372 -11.17133056 14.68584567 -8.75 12 C-8.14671875 11.319375 -7.5434375 10.63875 -6.921875 9.9375 C-5 8 -5 8 -2.8125 6.41796875 C-0.73683136 5.08288838 -0.73683136 5.08288838 -0.25 2.3125 C-0.1675 1.549375 -0.085 0.78625 0 0 Z " fill="#1D8EE2" transform="translate(25,64)"/>
<path d="M0 0 C0.33 0 0.66 0 1 0 C1 6.27 1 12.54 1 19 C0.01 19 -0.98 19 -2 19 C-2 15.37 -2 11.74 -2 8 C-1.34 8 -0.68 8 0 8 C0 5.36 0 2.72 0 0 Z " fill="#23A6ED" transform="translate(98,42)"/>
<path d="M0 0 C0.66 0 1.32 0 2 0 C2.33 0.99 2.66 1.98 3 3 C3.99 3.33 4.98 3.66 6 4 C5.566875 4.4125 5.13375 4.825 4.6875 5.25 C2.94161728 7.06054505 1.47380729 8.96474232 0 11 C-2.21538462 5.70769231 -2.21538462 5.70769231 -1.125 2.125 C-0.75375 1.42375 -0.3825 0.7225 0 0 Z " fill="#4935CB" transform="translate(160,207)"/>
<path d="M0 0 C0.66 0.33 1.32 0.66 2 1 C1.67 2.98 1.34 4.96 1 7 C2.32 6.67 3.64 6.34 5 6 C5 7.98 5 9.96 5 12 C0.125 9.125 0.125 9.125 -1 8 C-1.125 4.5 -1.125 4.5 -1 1 C-0.67 0.67 -0.34 0.34 0 0 Z " fill="#4D48C5" transform="translate(190,176)"/>
<path d="M0 0 C3.96 0 7.92 0 12 0 C12 0.99 12 1.98 12 3 C10.37509046 3.02698189 8.75005367 3.04638757 7.125 3.0625 C5.76761719 3.07990234 5.76761719 3.07990234 4.3828125 3.09765625 C2 3 2 3 0 2 C0 1.34 0 0.68 0 0 Z " fill="#E5F0F9" transform="translate(195,150)"/>
<path d="M0 0 C1.485 0.99 1.485 0.99 3 2 C3.1875 5.625 3.1875 5.625 3 9 C3.66 9.33 4.32 9.66 5 10 C3.02 10.99 3.02 10.99 1 12 C-0.47075246 7.58774263 -1.36884358 4.51718381 0 0 Z " fill="#DFE6F4" transform="translate(104,119)"/>
<path d="M0 0 C1.32 0 2.64 0 4 0 C4.66 1.65 5.32 3.3 6 5 C-0.93 4.505 -0.93 4.505 -8 4 C-8 3.67 -8 3.34 -8 3 C-6.865625 2.87625 -5.73125 2.7525 -4.5625 2.625 C-3.386875 2.41875 -2.21125 2.2125 -1 2 C-0.67 1.34 -0.34 0.68 0 0 Z " fill="#E2DEF1" transform="translate(60,210)"/>
<path d="M0 0 C0.99 0 1.98 0 3 0 C3 3.3 3 6.6 3 10 C2.34 10 1.68 10 1 10 C-0.60725635 6.78548731 -0.05748185 3.56387464 0 0 Z " fill="#E4E5F2" transform="translate(42,176)"/>
<path d="M0 0 C0.66 0 1.32 0 2 0 C1.44894091 3.9492568 0.61064629 7.34920174 -1 11 C-3 8 -3 8 -2.75 6.0625 C-1.97936717 3.94325972 -1.0643413 1.98677042 0 0 Z " fill="#22347B" transform="translate(431,143)"/>
<path d="M0 0 C0.66 0.33 1.32 0.66 2 1 C-1.3 4.3 -4.6 7.6 -8 11 C-8.33 10.01 -8.66 9.02 -9 8 C-6.03 5.36 -3.06 2.72 0 0 Z " fill="#2578DB" transform="translate(92,96)"/>
<path d="M0 0 C0.66 0.33 1.32 0.66 2 1 C-2.75 5 -2.75 5 -5 5 C-4.01 7.31 -3.02 9.62 -2 12 C-2.99 11.67 -3.98 11.34 -5 11 C-6.4477922 8.10441559 -7 6.25811062 -7 3 C-5.5459375 2.5359375 -5.5459375 2.5359375 -4.0625 2.0625 C-1.15934208 1.30476658 -1.15934208 1.30476658 0 0 Z " fill="#4C47C9" transform="translate(23,154)"/>
<path d="M0 0 C0.66 0.33 1.32 0.66 2 1 C1.67 1.99 1.34 2.98 1 4 C2.32 4.33 3.64 4.66 5 5 C5.33 4.34 5.66 3.68 6 3 C5.67 4.32 5.34 5.64 5 7 C3.34385343 7.38218767 1.67542976 7.71395102 0 8 C-1 7 -1 7 -1.125 4 C-1 1 -1 1 0 0 Z " fill="#9DAFE7" transform="translate(185,136)"/>
<path d="M0 0 C0.66 0 1.32 0 2 0 C2.34886026 5.32011893 2.34886026 5.32011893 2 8 C0.125 10 0.125 10 -2 11 C-2.66 11 -3.32 11 -4 11 C-4 8.69 -4 6.38 -4 4 C-3.01 5.32 -2.02 6.64 -1 8 C0.41577477 6.81575674 0.41577477 6.81575674 0.0625 3.4375 C0.041875 2.303125 0.02125 1.16875 0 0 Z " fill="#4C31CD" transform="translate(40,176)"/>
<path d="M0 0 C0.33 0.66 0.66 1.32 1 2 C1.66 2 2.32 2 3 2 C2.67 4.97 2.34 7.94 2 11 C1.01 10.34 0.02 9.68 -1 9 C-0.67 6.03 -0.34 3.06 0 0 Z " fill="#DCE4F3" transform="translate(110,117)"/>
<path d="M0 0 C1.98 0.495 1.98 0.495 4 1 C3.67 3.97 3.34 6.94 3 10 C2.34 10 1.68 10 1 10 C0 3.375 0 3.375 0 0 Z " fill="#4D79DB" transform="translate(106,118)"/>
<path d="M0 0 C1.65 0.33 3.3 0.66 5 1 C3.9024777 3.99324263 3.32317108 4.84610901 0.375 6.25 C-0.40875 6.4975 -1.1925 6.745 -2 7 C-1.67 6.401875 -1.34 5.80375 -1 5.1875 C0.20787988 2.94613529 0.20787988 2.94613529 0 0 Z " fill="#553ECA" transform="translate(94,189)"/>
<path d="M0 0 C0.66 0.33 1.32 0.66 2 1 C1.360625 1.86625 0.72125 2.7325 0.0625 3.625 C-1.97548296 6.9598812 -2.63433093 9.16047478 -3 13 C-3.33 13 -3.66 13 -4 13 C-4.49230769 5.73846154 -4.49230769 5.73846154 -2 2 C-1.34 1.34 -0.68 0.68 0 0 Z " fill="#29B1EC" transform="translate(578,150)"/>
<path d="M0 0 C1.98 0.495 1.98 0.495 4 1 C3.67 2.32 3.34 3.64 3 5 C1.68 5 0.36 5 -1 5 C-0.67 3.35 -0.34 1.7 0 0 Z " fill="#ECF0F9" transform="translate(97,121)"/>
<path d="M0 0 C0 0.66 0 1.32 0 2 C-1.63790712 3.04644066 -3.31008021 4.0398183 -5 5 C-6.34631825 5.98244845 -7.68441297 6.97676564 -9 8 C-9.66 7.67 -10.32 7.34 -11 7 C-9.87720538 6.01830524 -8.75168527 5.03972702 -7.625 4.0625 C-6.68527344 3.24458984 -6.68527344 3.24458984 -5.7265625 2.41015625 C-3.71547429 0.76761588 -2.62199195 0 0 0 Z " fill="#21BAF5" transform="translate(85,22)"/>
<path d="M0 0 C0.33 0 0.66 0 1 0 C2.34465195 7.21222411 2.34465195 7.21222411 0.6875 11 C0.130625 11.66 -0.42625 12.32 -1 13 C-1.66 13 -2.32 13 -3 13 C-2.68289062 12.43796875 -2.36578125 11.8759375 -2.0390625 11.296875 C-0.93125475 8.84803683 -0.61024601 6.91612145 -0.375 4.25 C-0.30023438 3.45078125 -0.22546875 2.6515625 -0.1484375 1.828125 C-0.09945312 1.22484375 -0.05046875 0.6215625 0 0 Z " fill="#4B33CF" transform="translate(70,193)"/>
<path d="M0 0 C2.97 0.495 2.97 0.495 6 1 C5.67 1.99 5.34 2.98 5 4 C2.69 4 0.38 4 -2 4 C-1.01 3.67 -0.02 3.34 1 3 C0.67 2.01 0.34 1.02 0 0 Z " fill="#D9D8F2" transform="translate(45,147)"/>
<path d="M0 0 C0.99 0.33 1.98 0.66 3 1 C2.67 2.65 2.34 4.3 2 6 C1.01 6 0.02 6 -1 6 C-1.042721 4.33388095 -1.04063832 2.66617115 -1 1 C-0.67 0.67 -0.34 0.34 0 0 Z " fill="#E8EDF9" transform="translate(132,121)"/>
<path d="M0 0 C0 0.66 0 1.32 0 2 C-1.95927063 3.7143618 -3.95880212 5.38405168 -6 7 C-6.66 6.67 -7.32 6.34 -8 6 C-3.375 0 -3.375 0 0 0 Z " fill="#1C3383" transform="translate(379,113)"/>
<path d="M0 0 C1.34366181 4.84930578 0.35215584 7.60930911 -2 12 C-3.12377697 8.69564916 -2.89554742 6.9493138 -1.5625 3.75 C-1.27503906 3.04359375 -0.98757812 2.3371875 -0.69140625 1.609375 C-0.46324219 1.07828125 -0.23507813 0.5471875 0 0 Z " fill="#32ADEB" transform="translate(28,49)"/>
<path d="M0 0 C0.33 2.64 0.66 5.28 1 8 C-0.70884005 6.37660195 -2.37446717 4.70680947 -4 3 C-4 2.34 -4 1.68 -4 1 C-2 0 -2 0 0 0 Z " fill="#5343C7" transform="translate(146,186)"/>
<path d="M0 0 C1.5 1.375 1.5 1.375 3 3 C3 3.66 3 4.32 3 5 C1 6.625 1 6.625 -1 8 C-1.33 6.02 -1.66 4.04 -2 2 C-1.34 2 -0.68 2 0 2 C0 1.34 0 0.68 0 0 Z " fill="#DDF3FA" transform="translate(162,33)"/>
<path d="M0 0 C0.99 0 1.98 0 3 0 C1.60667426 3.36720387 0.0210714 4.9859524 -3 7 C-2.38722388 4.03824877 -1.74627478 2.61941217 0 0 Z " fill="#4350C6" transform="translate(217,173)"/>
<path d="M0 0 C0.66 0.33 1.32 0.66 2 1 C1.04882866 2.1725131 0.08882991 3.33787015 -0.875 4.5 C-1.40867187 5.1496875 -1.94234375 5.799375 -2.4921875 6.46875 C-2.98976563 6.9740625 -3.48734375 7.479375 -4 8 C-4.66 8 -5.32 8 -6 8 C-4.73058503 4.08597051 -3.48832306 2.20927127 0 0 Z " fill="#2E8EE6" transform="translate(76,71)"/>
<path d="M0 0 C2.97 0.495 2.97 0.495 6 1 C6.33 2.32 6.66 3.64 7 5 C6.67 4.34 6.34 3.68 6 3 C4.02 3.33 2.04 3.66 0 4 C0 2.68 0 1.36 0 0 Z " fill="#3ED8F9" transform="translate(16,147)"/>
<path d="M0 0 C0.625 1.8125 0.625 1.8125 1 4 C0.01 5.485 0.01 5.485 -1 7 C-1.99 6.67 -2.98 6.34 -4 6 C-3.0022242 3.00667261 -2.2477975 2.05233685 0 0 Z " fill="#D7E0F2" transform="translate(110,130)"/>
<path d="M0 0 C0.33 0 0.66 0 1 0 C1.042721 1.66611905 1.04063832 3.33382885 1 5 C0 6 0 6 -2.28515625 6.09765625 C-3.65994141 6.08025391 -3.65994141 6.08025391 -5.0625 6.0625 C-5.98160156 6.05347656 -6.90070312 6.04445313 -7.84765625 6.03515625 C-8.55792969 6.02355469 -9.26820312 6.01195312 -10 6 C-10 5.67 -10 5.34 -10 5 C-8.72125 4.9175 -7.4425 4.835 -6.125 4.75 C-3.94666582 4.54130069 -3.94666582 4.54130069 -2 4 C-0.4100567 2.07935207 -0.4100567 2.07935207 0 0 Z " fill="#3BC2F3" transform="translate(61,29)"/>
<path d="M0 0 C1.9375 0.375 1.9375 0.375 4 1 C4.33 1.66 4.66 2.32 5 3 C1.7 3 -1.6 3 -5 3 C-5 2.67 -5 2.34 -5 2 C-3.35 2 -1.7 2 0 2 C0 1.34 0 0.68 0 0 Z " fill="#FCFCFD" transform="translate(56,210)"/>
<path d="M0 0 C1.485 0.99 1.485 0.99 3 2 C3.1875 4.625 3.1875 4.625 3 7 C2.01 6.67 1.02 6.34 0 6 C0 4.02 0 2.04 0 0 Z " fill="#F2F6FC" transform="translate(126,123)"/>
<path d="M0 0 C0.66 0.33 1.32 0.66 2 1 C1.67 3.64 1.34 6.28 1 9 C0.67 9 0.34 9 0 9 C-0.87890625 2.84765625 -0.87890625 2.84765625 -1 1 C-0.67 0.67 -0.34 0.34 0 0 Z " fill="#3E74D7" transform="translate(129,121)"/>
<path d="M0 0 C0.99 0.33 1.98 0.66 3 1 C1.35 2.98 -0.3 4.96 -2 7 C-2.33 6.01 -2.66 5.02 -3 4 C-1.5625 1.8125 -1.5625 1.8125 0 0 Z " fill="#16AAEC" transform="translate(32,44)"/>
<path d="M0 0 C4.455 0.99 4.455 0.99 9 2 C9 2.33 9 2.66 9 3 C6.36 3 3.72 3 1 3 C0.67 2.01 0.34 1.02 0 0 Z " fill="#3AC4F2" transform="translate(165,38)"/>
</svg>
